<svg version="1.1" viewBox="0.0 0.0 960.0 540.0" fill="none" stroke="none" stroke-linecap="square" stroke-miterlimit="10" xmlns:xlink="http://www.w3.org/1999/xlink" xmlns="http://www.w3.org/2000/svg"><clipPath id="p.0"><path d="m0 0l960.0 0l0 540.0l-960.0 0l0 -540.0z" clip-rule="nonzero"/></clipPath><g clip-path="url(#p.0)"><path fill="#ffffff" d="m0 0l960.0 0l0 540.0l-960.0 0z" fill-rule="evenodd"/><path fill="#cfe2f3" d="m47.937008 106.715546l0 0c0 -45.091114 36.55357 -81.644684 81.64467 -81.644684l700.8367 0c21.653503 0 42.420166 8.601826 57.731506 23.913174c15.31134 15.311348 23.913147 36.077988 23.913147 57.731506l0 326.5689c0 45.091125 -36.55359 81.644684 -81.64465 81.644684l-700.8367 0c-45.091103 0 -81.64467 -36.55356 -81.64467 -81.644684z" fill-rule="evenodd"/><path stroke="#cfe2f3" stroke-width="1.0" stroke-linejoin="round" stroke-linecap="butt" d="m47.937008 106.715546l0 0c0 -45.091114 36.55357 -81.644684 81.64467 -81.644684l700.8367 0c21.653503 0 42.420166 8.601826 57.731506 23.913174c15.31134 15.311348 23.913147 36.077988 23.913147 57.731506l0 326.5689c0 45.091125 -36.55359 81.644684 -81.64465 81.644684l-700.8367 0c-45.091103 0 -81.64467 -36.55356 -81.64467 -81.644684z" fill-rule="evenodd"/><path fill="#ffe599" d="m111.62205 172.7037l0 0c0 -34.452072 27.928932 -62.381012 62.38102 -62.381012l316.4978 0c16.544464 0 32.411346 6.5722656 44.110016 18.27098c11.69873 11.6987 18.270996 27.565567 18.270996 44.11003l0 249.51657c0 34.452087 -27.928955 62.381012 -62.381012 62.381012l-316.4978 0c-34.452087 0 -62.38102 -27.928925 -62.38102 -62.381012z" fill-rule="evenodd"/><path stroke="#ffe599" stroke-width="1.0" stroke-linejoin="round" stroke-linecap="butt" d="m111.62205 172.7037l0 0c0 -34.452072 27.928932 -62.381012 62.38102 -62.381012l316.4978 0c16.544464 0 32.411346 6.5722656 44.110016 18.27098c11.69873 11.6987 18.270996 27.565567 18.270996 44.11003l0 249.51657c0 34.452087 -27.928955 62.381012 -62.381012 62.381012l-316.4978 0c-34.452087 0 -62.38102 -27.928925 -62.38102 -62.381012z" fill-rule="evenodd"/><path fill="#ffe599" d="m579.147 155.19498l0 0c0 -24.782272 20.090027 -44.872284 44.872314 -44.872284l179.48376 0l0 0c11.900879 0 23.314331 4.7276077 31.729492 13.142792c8.415161 8.415192 13.142761 19.828629 13.142761 31.729492l0 284.53403c0 24.782288 -20.089966 44.872284 -44.872253 44.872284l-179.48376 0c-24.782288 0 -44.872314 -20.089996 -44.872314 -44.872284z" fill-rule="evenodd"/><path stroke="#ffe599" stroke-width="1.0" stroke-linejoin="round" stroke-linecap="butt" d="m579.147 155.19498l0 0c0 -24.782272 20.090027 -44.872284 44.872314 -44.872284l179.48376 0l0 0c11.900879 0 23.314331 4.7276077 31.729492 13.142792c8.415161 8.415192 13.142761 19.828629 13.142761 31.729492l0 284.53403c0 24.782288 -20.089966 44.872284 -44.872253 44.872284l-179.48376 0c-24.782288 0 -44.872314 -20.089996 -44.872314 -44.872284z" fill-rule="evenodd"/><path fill="#000000" fill-opacity="0.0" d="m399.65353 33.070866l160.6929 0l0 72.755905l-160.6929 0z" fill-rule="evenodd"/><path fill="#000000" d="m453.32828 53.69899l6.84375 0l0 22.96875q0 3.15625 -1.40625 5.59375q-1.40625 2.421875 -3.953125 3.75q-2.546875 1.3125 -5.765625 1.3125q-5.265625 0 -8.203125 -2.671875q-2.9375 -2.671875 -2.9375 -7.578125l6.890625 0q0 2.4375 1.015625 3.609375q1.03125 1.15625 3.234375 1.15625q1.96875 0 3.125 -1.34375q1.15625 -1.34375 1.15625 -3.828125l0 -22.96875zm12.702515 33.171875l0 -33.171875l10.203125 0q4.375 0 7.8125 1.96875q3.453125 1.96875 5.390625 5.609375q1.9375 3.625 1.9375 8.25l0 1.53125q0 4.625 -1.90625 8.234375q-1.890625 3.59375 -5.359375 5.578125q-3.453125 1.984375 -7.8125 2.0l-10.265625 0zm6.828125 -27.640625l0 22.15625l3.296875 0q4.015625 0 6.125 -2.625q2.125 -2.625 2.171875 -7.5l0 -1.75q0 -5.0625 -2.09375 -7.671875q-2.09375 -2.609375 -6.125 -2.609375l-3.375 0zm33.868896 14.34375l-3.546875 3.8125l0 9.484375l-6.828125 0l0 -33.171875l6.828125 0l0 15.03125l3.0 -4.109375l8.4530945 -10.921875l8.40625 0l-11.7655945 14.734375l12.1093445 18.4375l-8.125 0l-8.5312195 -13.296875z" fill-rule="nonzero"/><path fill="#000000" fill-opacity="0.0" d="m251.90552 135.50394l160.6929 0l0 62.740158l-160.6929 0z" fill-rule="evenodd"/><path fill="#000000" d="m309.6674 155.13582l6.25 0l0 21.0q0 2.890625 -1.28125 5.109375q-1.28125 2.21875 -3.625 3.4375q-2.328125 1.203125 -5.265625 1.203125q-4.8125 0 -7.5 -2.453125q-2.6875 -2.453125 -2.6875 -6.921875l6.296875 0q0 2.21875 0.9375 3.28125q0.9375 1.0625 2.953125 1.0625q1.796875 0 2.859375 -1.21875q1.0625 -1.234375 1.0625 -3.5l0 -21.0zm22.827515 19.234375l-4.984375 0l0 11.09375l-6.25 0l0 -30.328125l11.265625 0q5.375 0 8.296875 2.40625q2.921875 2.390625 2.921875 6.765625q0 3.09375 -1.34375 5.171875q-1.34375 2.078125 -4.078125 3.296875l6.5625 12.390625l0 0.296875l-6.703125 0l-5.6875 -11.09375zm-4.984375 -5.0625l5.046875 0q2.34375 0 3.640625 -1.203125q1.296875 -1.203125 1.296875 -3.296875q0 -2.15625 -1.21875 -3.375q-1.21875 -1.234375 -3.75 -1.234375l-5.015625 0l0 9.109375zm39.222504 3.015625l-12.0 0l0 8.125l14.078125 0l0 5.015625l-20.328125 0l0 -30.328125l20.296875 0l0 5.0625l-14.046875 0l0 7.234375l12.0 0l0 4.890625z" fill-rule="nonzero"/><path fill="#ffffff" d="m127.38845 284.76437l0 0c0 -16.56018 13.424675 -29.984848 29.984856 -29.984848l125.19563 0l0 0c7.952484 0 15.579254 3.1591034 21.202515 8.782364c5.62323 5.6232605 8.782349 13.25 8.782349 21.202484l0 119.93582c0 16.56018 -13.424683 29.984833 -29.984863 29.984833l-125.19563 0c-16.56018 0 -29.984856 -13.424652 -29.984856 -29.984833z" fill-rule="evenodd"/><path stroke="#ffffff" stroke-width="1.0" stroke-linejoin="round" stroke-linecap="butt" d="m127.38845 284.76437l0 0c0 -16.56018 13.424675 -29.984848 29.984856 -29.984848l125.19563 0l0 0c7.952484 0 15.579254 3.1591034 21.202515 8.782364c5.62323 5.6232605 8.782349 13.25 8.782349 21.202484l0 119.93582c0 16.56018 -13.424683 29.984833 -29.984863 29.984833l-125.19563 0c-16.56018 0 -29.984856 -13.424652 -29.984856 -29.984833z" fill-rule="evenodd"/><path fill="#000000" d="m196.84212 333.0448l4.875 0l0 16.390625q0 2.265625 -1.0 4.0q-1.0 1.734375 -2.828125 2.6875q-1.8125 0.9375 -4.109375 0.9375q-3.765625 0 -5.859375 -1.90625q-2.09375 -1.921875 -2.09375 -5.421875l4.90625 0q0 1.75 0.734375 2.578125q0.734375 0.828125 2.3125 0.828125q1.40625 0 2.234375 -0.953125q0.828125 -0.96875 0.828125 -2.75l0 -16.390625zm17.820007 17.8125l5.359375 -17.8125l5.4375 0l-8.25 23.6875l-5.09375 0l-8.21875 -23.6875l5.421875 0l5.34375 17.8125zm19.415222 -17.8125l6.078125 17.171875l6.0625 -17.171875l6.40625 0l0 23.6875l-4.90625 0l0 -6.484375l0.5 -11.171875l-6.40625 17.65625l-3.34375 0l-6.375 -17.640625l0.484375 11.15625l0 6.484375l-4.890625 0l0 -23.6875l6.390625 0z" fill-rule="nonzero"/><path fill="#ffffff" d="m329.8714 284.76437l0 0c0 -16.56018 13.424683 -29.984848 29.984833 -29.984848l145.98306 0c7.9524536 0 15.579224 3.1591034 21.202515 8.782364c5.62323 5.6232605 8.782349 13.25 8.782349 21.202484l0 119.93582c0 16.56018 -13.424683 29.984833 -29.984863 29.984833l-145.98306 0c-16.56015 0 -29.984833 -13.424652 -29.984833 -29.984833z" fill-rule="evenodd"/><path stroke="#ffffff" stroke-width="1.0" stroke-linejoin="round" stroke-linecap="butt" d="m329.8714 284.76437l0 0c0 -16.56018 13.424683 -29.984848 29.984833 -29.984848l145.98306 0c7.9524536 0 15.579224 3.1591034 21.202515 8.782364c5.62323 5.6232605 8.782349 13.25 8.782349 21.202484l0 119.93582c0 16.56018 -13.424683 29.984833 -29.984863 29.984833l-145.98306 0c-16.56015 0 -29.984833 -13.424652 -29.984833 -29.984833z" fill-rule="evenodd"/><path fill="#000000" d="m363.6241 313.0448l4.875 0l0 16.390625q0 2.265625 -1.0 4.0q-1.0 1.734375 -2.828125 2.6875q-1.8125 0.9375 -4.109375 0.9375q-3.765625 0 -5.859375 -1.90625q-2.09375 -1.921875 -2.09375 -5.421875l4.90625 0q0 1.75 0.734375 2.578125q0.734375 0.828125 2.3125 0.828125q1.40625 0 2.234375 -0.953125q0.828125 -0.96875 0.828125 -2.75l0 -16.390625zm18.960632 23.6875q-0.328125 -0.640625 -0.484375 -1.578125q-1.703125 1.90625 -4.4375 1.90625q-2.59375 0 -4.296875 -1.5q-1.6875 -1.5 -1.6875 -3.78125q0 -2.796875 2.0625 -4.28125q2.078125 -1.5 6.0 -1.515625l2.171875 0l0 -1.015625q0 -1.21875 -0.625 -1.953125q-0.625 -0.734375 -1.984375 -0.734375q-1.1875 0 -1.859375 0.578125q-0.671875 0.5625 -0.671875 1.5625l-4.703125 0q0 -1.53125 0.9375 -2.828125q0.953125 -1.3125 2.671875 -2.046875q1.71875 -0.75 3.875 -0.75q3.25 0 5.15625 1.640625q1.921875 1.640625 1.921875 4.59375l0 7.640625q0.015625 2.5 0.703125 3.78125l0 0.28125l-4.75 0zm-3.890625 -3.265625q1.03125 0 1.90625 -0.46875q0.890625 -0.46875 1.3125 -1.25l0 -3.015625l-1.765625 0q-3.53125 0 -3.75 2.4375l-0.015625 0.28125q0 0.875 0.609375 1.453125q0.625 0.5625 1.703125 0.5625zm17.88977 -2.484375l3.28125 -11.859375l4.90625 0l-5.9375 17.609375l-4.484375 0l-5.9375 -17.609375l4.90625 0l3.265625 11.859375zm20.223938 5.75q-0.328125 -0.640625 -0.484375 -1.578125q-1.703125 1.90625 -4.4375 1.90625q-2.59375 0 -4.296875 -1.5q-1.6875 -1.5 -1.6875 -3.78125q0 -2.796875 2.0625 -4.28125q2.078125 -1.5 6.0 -1.515625l2.171875 0l0 -1.015625q0 -1.21875 -0.625 -1.953125q-0.625 -0.734375 -1.984375 -0.734375q-1.1875 0 -1.859375 0.578125q-0.671875 0.5625 -0.671875 1.5625l-4.703125 0q0 -1.53125 0.9375 -2.828125q0.953125 -1.3125 2.671875 -2.046875q1.71875 -0.75 3.875 -0.75q3.25 0 5.15625 1.640625q1.921875 1.640625 1.921875 4.59375l0 7.640625q0.015625 2.5 0.703125 3.78125l0 0.28125l-4.75 0zm-3.890625 -3.265625q1.03125 0 1.90625 -0.46875q0.890625 -0.46875 1.3125 -1.25l0 -3.015625l-1.765625 0q-3.53125 0 -3.75 2.4375l-0.015625 0.28125q0 0.875 0.609375 1.453125q0.625 0.5625 1.703125 0.5625zm38.761536 -4.625q-0.28125 3.828125 -2.828125 6.03125q-2.546875 2.1875 -6.703125 2.1875q-4.5625 0 -7.171875 -3.0625q-2.609375 -3.078125 -2.609375 -8.421875l0 -1.453125q0 -3.421875 1.203125 -6.015625q1.203125 -2.609375 3.4375 -4.0q2.234375 -1.390625 5.203125 -1.390625q4.09375 0 6.59375 2.203125q2.515625 2.1875 2.90625 6.15625l-4.890625 0q-0.171875 -2.296875 -1.28125 -3.328125q-1.09375 -1.03125 -3.328125 -1.03125q-2.453125 0 -3.671875 1.75q-1.203125 1.75 -1.234375 5.421875l0 1.796875q0 3.84375 1.15625 5.625q1.171875 1.765625 3.6875 1.765625q2.25 0 3.359375 -1.03125q1.125 -1.046875 1.28125 -3.203125l4.890625 0zm7.853363 7.890625l-4.71875 0l0 -25.0l4.71875 0l0 25.0zm14.086517 0q-0.328125 -0.640625 -0.484375 -1.578125q-1.703125 1.90625 -4.4375 1.90625q-2.59375 0 -4.296875 -1.5q-1.6875 -1.5 -1.6875 -3.78125q0 -2.796875 2.0625 -4.28125q2.078125 -1.5 6.0 -1.515625l2.171875 0l0 -1.015625q0 -1.21875 -0.625 -1.953125q-0.625 -0.734375 -1.984375 -0.734375q-1.1875 0 -1.859375 0.578125q-0.671875 0.5625 -0.671875 1.5625l-4.703125 0q0 -1.53125 0.9375 -2.828125q0.953125 -1.3125 2.671875 -2.046875q1.71875 -0.75 3.875 -0.75q3.25 0 5.15625 1.640625q1.921875 1.640625 1.921875 4.59375l0 7.640625q0.015625 2.5 0.703125 3.78125l0 0.28125l-4.75 0zm-3.890625 -3.265625q1.03125 0 1.90625 -0.46875q0.890625 -0.46875 1.3125 -1.25l0 -3.015625l-1.765625 0q-3.53125 0 -3.75 2.4375l-0.015625 0.28125q0 0.875 0.609375 1.453125q0.625 0.5625 1.703125 0.5625zm21.087067 -1.59375q0 -0.875 -0.859375 -1.359375q-0.84375 -0.5 -2.734375 -0.890625q-6.28125 -1.3125 -6.28125 -5.34375q0 -2.34375 1.9375 -3.90625q1.953125 -1.578125 5.09375 -1.578125q3.34375 0 5.34375 1.578125q2.015625 1.578125 2.015625 4.109375l-4.703125 0q0 -1.015625 -0.65625 -1.671875q-0.640625 -0.65625 -2.015625 -0.65625q-1.1875 0 -1.84375 0.546875q-0.65625 0.53125 -0.65625 1.359375q0 0.78125 0.734375 1.265625q0.75 0.46875 2.5 0.828125q1.765625 0.34375 2.96875 0.78125q3.734375 1.375 3.734375 4.734375q0 2.40625 -2.078125 3.90625q-2.0625 1.484375 -5.328125 1.484375q-2.21875 0 -3.9375 -0.78125q-1.71875 -0.796875 -2.703125 -2.171875q-0.96875 -1.375 -0.96875 -2.96875l4.46875 0q0.0625 1.25 0.921875 1.921875q0.859375 0.65625 2.3125 0.65625q1.34375 0 2.03125 -0.5q0.703125 -0.515625 0.703125 -1.34375zm17.135986 0q0 -0.875 -0.859375 -1.359375q-0.84375 -0.5 -2.734375 -0.890625q-6.28125 -1.3125 -6.28125 -5.34375q0 -2.34375 1.9375 -3.90625q1.953125 -1.578125 5.09375 -1.578125q3.34375 0 5.34375 1.578125q2.015625 1.578125 2.015625 4.109375l-4.703125 0q0 -1.015625 -0.65625 -1.671875q-0.640625 -0.65625 -2.015625 -0.65625q-1.1875 0 -1.84375 0.546875q-0.65625 0.53125 -0.65625 1.359375q0 0.78125 0.734375 1.265625q0.75 0.46875 2.5 0.828125q1.765625 0.34375 2.96875 0.78125q3.734375 1.375 3.734375 4.734375q0 2.40625 -2.078125 3.90625q-2.0625 1.484375 -5.328125 1.484375q-2.21875 0 -3.9375 -0.78125q-1.71875 -0.796875 -2.703125 -2.171875q-0.96875 -1.375 -0.96875 -2.96875l4.46875 0q0.0625 1.25 0.921875 1.921875q0.859375 0.65625 2.3125 0.65625q1.34375 0 2.03125 -0.5q0.703125 -0.515625 0.703125 -1.34375z" fill-rule="nonzero"/><path fill="#000000" d="m387.66678 372.81042l10.359375 0l0 3.921875l-15.25 0l0 -23.6875l4.890625 0l0 19.765625zm17.812958 3.921875l-4.71875 0l0 -17.609375l4.71875 0l0 17.609375zm-4.984375 -22.171875q0 -1.046875 0.703125 -1.734375q0.703125 -0.6875 1.921875 -0.6875q1.203125 0 1.921875 0.6875q0.71875 0.6875 0.71875 1.734375q0 1.078125 -0.734375 1.765625q-0.71875 0.6875 -1.90625 0.6875q-1.1875 0 -1.90625 -0.6875q-0.71875 -0.6875 -0.71875 -1.765625zm24.727142 13.53125q0 4.234375 -1.8125 6.609375q-1.796875 2.359375 -5.03125 2.359375q-2.875 0 -4.578125 -2.203125l-0.21875 1.875l-4.21875 0l0 -25.0l4.703125 0l0 8.96875q1.625 -1.90625 4.28125 -1.90625q3.21875 0 5.046875 2.375q1.828125 2.359375 1.828125 6.65625l0 0.265625zm-4.703125 -0.34375q0 -2.671875 -0.84375 -3.890625q-0.84375 -1.234375 -2.53125 -1.234375q-2.234375 0 -3.078125 1.84375l0 6.9375q0.859375 1.859375 3.125 1.859375q2.265625 0 2.984375 -2.25q0.34375 -1.0625 0.34375 -3.265625zm17.497711 -4.21875q-0.96875 -0.125 -1.6875 -0.125q-2.671875 0 -3.5 1.8125l0 11.515625l-4.703125 0l0 -17.609375l4.4375 0l0.125 2.09375q1.421875 -2.421875 3.921875 -2.421875q0.78125 0 1.46875 0.21875l-0.0625 4.515625zm11.98053 13.203125q-0.328125 -0.640625 -0.484375 -1.578125q-1.703125 1.90625 -4.4375 1.90625q-2.59375 0 -4.296875 -1.5q-1.6875 -1.5 -1.6875 -3.78125q0 -2.796875 2.0625 -4.28125q2.078125 -1.5 6.0 -1.515625l2.171875 0l0 -1.015625q0 -1.21875 -0.625 -1.953125q-0.625 -0.734375 -1.984375 -0.734375q-1.1875 0 -1.859375 0.578125q-0.671875 0.5625 -0.671875 1.5625l-4.703125 0q0 -1.53125 0.9375 -2.828125q0.953125 -1.3125 2.671875 -2.046875q1.71875 -0.75 3.875 -0.75q3.25 0 5.15625 1.640625q1.921875 1.640625 1.921875 4.59375l0 7.640625q0.015625 2.5 0.703125 3.78125l0 0.28125l-4.75 0zm-3.890625 -3.265625q1.03125 0 1.90625 -0.46875q0.890625 -0.46875 1.3125 -1.25l0 -3.015625l-1.765625 0q-3.53125 0 -3.75 2.4375l-0.015625 0.28125q0 0.875 0.609375 1.453125q0.625 0.5625 1.703125 0.5625zm21.446442 -9.9375q-0.96875 -0.125 -1.6875 -0.125q-2.671875 0 -3.5 1.8125l0 11.515625l-4.703125 0l0 -17.609375l4.4375 0l0.125 2.09375q1.421875 -2.421875 3.921875 -2.421875q0.78125 0 1.46875 0.21875l-0.0625 4.515625zm9.121155 6.546875l3.265625 -10.953125l5.046875 0l-7.09375 20.34375l-0.390625 0.921875q-1.578125 3.453125 -5.203125 3.453125q-1.015625 0 -2.078125 -0.3125l0 -3.5625l0.71875 0.015625q1.328125 0 1.984375 -0.40625q0.65625 -0.40625 1.03125 -1.34375l0.5625 -1.453125l-6.171875 -17.65625l5.0625 0l3.265625 10.953125z" fill-rule="nonzero"/><path fill="#000000" fill-opacity="0.0" d="m616.7848 126.00656l193.95276 0l0 120.8819l-193.95276 0z" fill-rule="evenodd"/><path fill="#000000" d="m694.8126 141.65344l3.90625 0l0 13.125q0 1.8125 -0.796875 3.203125q-0.796875 1.375 -2.265625 2.140625q-1.453125 0.75 -3.28125 0.75q-3.015625 0 -4.703125 -1.53125q-1.671875 -1.53125 -1.671875 -4.328125l3.9375 0q0 1.390625 0.578125 2.0625q0.59375 0.65625 1.859375 0.65625q1.109375 0 1.765625 -0.765625q0.671875 -0.765625 0.671875 -2.1875l0 -13.125zm15.171265 18.953125q-0.265625 -0.5 -0.375 -1.265625q-1.375 1.53125 -3.5625 1.53125q-2.0625 0 -3.421875 -1.203125q-1.359375 -1.203125 -1.359375 -3.015625q0 -2.25 1.65625 -3.4375q1.65625 -1.203125 4.796875 -1.21875l1.734375 0l0 -0.796875q0 -0.984375 -0.515625 -1.5625q-0.5 -0.59375 -1.578125 -0.59375q-0.9375 0 -1.484375 0.46875q-0.546875 0.453125 -0.546875 1.234375l-3.75 0q0 -1.21875 0.75 -2.25q0.75 -1.046875 2.125 -1.640625q1.390625 -0.59375 3.109375 -0.59375q2.59375 0 4.125 1.3125q1.53125 1.296875 1.53125 3.671875l0 6.109375q0.015625 2.0 0.5625 3.03125l0 0.21875l-3.796875 0zm-3.109375 -2.609375q0.828125 0 1.53125 -0.375q0.703125 -0.375 1.046875 -1.0l0 -2.421875l-1.40625 0q-2.828125 0 -3.015625 1.953125l-0.015625 0.21875q0 0.703125 0.5 1.171875q0.5 0.453125 1.359375 0.453125zm14.314758 -1.984375l2.609375 -9.484375l3.9375 0l-4.75 14.078125l-3.59375 0l-4.75 -14.078125l3.921875 0l2.625 9.484375zm16.166626 4.59375q-0.265625 -0.5 -0.375 -1.265625q-1.375 1.53125 -3.5625 1.53125q-2.0625 0 -3.421875 -1.203125q-1.359375 -1.203125 -1.359375 -3.015625q0 -2.25 1.65625 -3.4375q1.65625 -1.203125 4.796875 -1.21875l1.734375 0l0 -0.796875q0 -0.984375 -0.515625 -1.5625q-0.5 -0.59375 -1.578125 -0.59375q-0.9375 0 -1.484375 0.46875q-0.546875 0.453125 -0.546875 1.234375l-3.75 0q0 -1.21875 0.75 -2.25q0.75 -1.046875 2.125 -1.640625q1.390625 -0.59375 3.109375 -0.59375q2.59375 0 4.125 1.3125q1.53125 1.296875 1.53125 3.671875l0 6.109375q0.015625 2.0 0.5625 3.03125l0 0.21875l-3.796875 0zm-3.109375 -2.609375q0.828125 0 1.53125 -0.375q0.703125 -0.375 1.046875 -1.0l0 -2.421875l-1.40625 0q-2.828125 0 -3.015625 1.953125l-0.015625 0.21875q0 0.703125 0.5 1.171875q0.5 0.453125 1.359375 0.453125z" fill-rule="nonzero"/><path fill="#000000" d="m636.5277 192.60657l0 -18.953125l5.828125 0q2.5 0 4.46875 1.125q1.984375 1.125 3.078125 3.203125q1.109375 2.078125 1.109375 4.71875l0 0.875q0 2.640625 -1.09375 4.703125q-1.078125 2.046875 -3.0625 3.1875q-1.96875 1.125 -4.453125 1.140625l-5.875 0zm3.90625 -15.78125l0 12.640625l1.890625 0q2.296875 0 3.5 -1.484375q1.21875 -1.5 1.234375 -4.296875l0 -1.0q0 -2.890625 -1.203125 -4.375q-1.1875 -1.484375 -3.5 -1.484375l-1.921875 0zm19.6521 16.046875q-3.09375 0 -5.046875 -1.90625q-1.9375 -1.90625 -1.9375 -5.0625l0 -0.359375q0 -2.125 0.8125 -3.796875q0.828125 -1.671875 2.328125 -2.578125q1.5 -0.90625 3.4375 -0.90625q2.890625 0 4.546875 1.828125q1.65625 1.8125 1.65625 5.15625l0 1.546875l-8.96875 0q0.1875 1.375 1.09375 2.21875q0.921875 0.828125 2.328125 0.828125q2.171875 0 3.40625 -1.578125l1.84375 2.0625q-0.84375 1.203125 -2.296875 1.875q-1.4375 0.671875 -3.203125 0.671875zm-0.421875 -11.5625q-1.125 0 -1.828125 0.765625q-0.6875 0.75 -0.875 2.15625l5.21875 0l0 -0.3125q-0.015625 -1.25 -0.671875 -1.921875q-0.65625 -0.6875 -1.84375 -0.6875zm13.457947 6.703125l2.609375 -9.484375l3.9375 0l-4.75 14.078125l-3.59375 0l-4.75 -14.078125l3.921875 0l2.625 9.484375zm14.505127 4.859375q-3.09375 0 -5.046875 -1.90625q-1.9375 -1.90625 -1.9375 -5.0625l0 -0.359375q0 -2.125 0.8125 -3.796875q0.828125 -1.671875 2.328125 -2.578125q1.5 -0.90625 3.4375 -0.90625q2.890625 0 4.546875 1.828125q1.65625 1.8125 1.65625 5.15625l0 1.546875l-8.96875 0q0.1875 1.375 1.09375 2.21875q0.921875 0.828125 2.328125 0.828125q2.171875 0 3.40625 -1.578125l1.84375 2.0625q-0.84375 1.203125 -2.296875 1.875q-1.4375 0.671875 -3.203125 0.671875zm-0.421875 -11.5625q-1.125 0 -1.828125 0.765625q-0.6875 0.75 -0.875 2.15625l5.21875 0l0 -0.3125q-0.015625 -1.25 -0.671875 -1.921875q-0.65625 -0.6875 -1.84375 -0.6875zm12.330322 11.296875l-3.78125 0l0 -20.0l3.78125 0l0 20.0zm2.505066 -7.171875q0 -2.09375 0.796875 -3.734375q0.8125 -1.640625 2.328125 -2.53125q1.515625 -0.90625 3.53125 -0.90625q2.84375 0 4.640625 1.75q1.8125 1.734375 2.015625 4.734375l0.03125 0.96875q0 3.234375 -1.8125 5.203125q-1.8125 1.953125 -4.859375 1.953125q-3.046875 0 -4.859375 -1.953125q-1.8125 -1.953125 -1.8125 -5.3125l0 -0.171875zm3.765625 0.28125q0 2.0 0.75 3.0625q0.75 1.0625 2.15625 1.0625q1.375 0 2.140625 -1.046875q0.765625 -1.0625 0.765625 -3.359375q0 -1.96875 -0.765625 -3.046875q-0.765625 -1.078125 -2.15625 -1.078125q-1.390625 0 -2.140625 1.078125q-0.75 1.0625 -0.75 3.328125zm24.572205 -0.015625q0 3.25 -1.484375 5.21875q-1.46875 1.953125 -3.984375 1.953125q-2.140625 0 -3.453125 -1.484375l0 6.640625l-3.765625 0l0 -19.5l3.5 0l0.125 1.375q1.375 -1.640625 3.5625 -1.640625q2.609375 0 4.046875 1.9375q1.453125 1.921875 1.453125 5.296875l0 0.203125zm-3.765625 -0.28125q0 -1.96875 -0.703125 -3.03125q-0.6875 -1.0625 -2.015625 -1.0625q-1.765625 0 -2.4375 1.34375l0 5.765625q0.6875 1.40625 2.46875 1.40625q2.6875 0 2.6875 -4.421875zm9.616516 -6.890625l0.125 1.5625q1.5 -1.828125 4.046875 -1.828125q2.71875 0 3.734375 2.140625q1.484375 -2.140625 4.234375 -2.140625q2.28125 0 3.390625 1.34375q1.125 1.328125 1.125 4.0l0 9.0l-3.765625 0l0 -8.984375q0 -1.1875 -0.46875 -1.734375q-0.46875 -0.5625 -1.65625 -0.5625q-1.6875 0 -2.34375 1.609375l0.015625 9.671875l-3.765625 0l0 -8.96875q0 -1.21875 -0.484375 -1.765625q-0.46875 -0.546875 -1.640625 -0.546875q-1.59375 0 -2.3125 1.328125l0 9.953125l-3.765625 0l0 -14.078125l3.53125 0zm26.03009 14.34375q-3.09375 0 -5.046875 -1.90625q-1.9375 -1.90625 -1.9375 -5.0625l0 -0.359375q0 -2.125 0.8125 -3.796875q0.828125 -1.671875 2.328125 -2.578125q1.5 -0.90625 3.4375 -0.90625q2.890625 0 4.546875 1.828125q1.65625 1.8125 1.65625 5.15625l0 1.546875l-8.96875 0q0.1875 1.375 1.09375 2.21875q0.921875 0.828125 2.328125 0.828125q2.171875 0 3.40625 -1.578125l1.84375 2.0625q-0.84375 1.203125 -2.296875 1.875q-1.4375 0.671875 -3.203125 0.671875zm-0.421875 -11.5625q-1.125 0 -1.828125 0.765625q-0.6875 0.75 -0.875 2.15625l5.21875 0l0 -0.3125q-0.015625 -1.25 -0.671875 -1.921875q-0.65625 -0.6875 -1.84375 -0.6875zm11.814636 -2.78125l0.125 1.625q1.5 -1.890625 4.046875 -1.890625q2.234375 0 3.328125 1.3125q1.09375 1.3125 1.109375 3.9375l0 9.09375l-3.75 0l0 -9.0q0 -1.203125 -0.53125 -1.734375q-0.515625 -0.546875 -1.71875 -0.546875q-1.59375 0 -2.390625 1.34375l0 9.9375l-3.765625 0l0 -14.078125l3.546875 0zm15.975952 -3.46875l0 3.46875l2.40625 0l0 2.75l-2.40625 0l0 7.03125q0 0.78125 0.296875 1.125q0.296875 0.328125 1.140625 0.328125q0.625 0 1.109375 -0.078125l0 2.84375q-1.109375 0.34375 -2.28125 0.34375q-3.953125 0 -4.03125 -4.0l0 -7.59375l-2.0625 0l0 -2.75l2.0625 0l0 -3.46875l3.765625 0z" fill-rule="nonzero"/><path fill="#000000" d="m697.3642 208.82532l-5.796875 0l0 15.78125l-3.90625 0l0 -15.78125l-5.734375 0l0 -3.171875l15.4375 0l0 3.171875zm-1.3111572 8.609375q0 -2.09375 0.796875 -3.734375q0.8125 -1.640625 2.328125 -2.53125q1.515625 -0.90625 3.53125 -0.90625q2.84375 0 4.640625 1.75q1.8125 1.734375 2.015625 4.734375l0.03125 0.96875q0 3.234375 -1.8125 5.203125q-1.8125 1.953125 -4.859375 1.953125q-3.046875 0 -4.859375 -1.953125q-1.8125 -1.953125 -1.8125 -5.3125l0 -0.171875zm3.765625 0.28125q0 2.0 0.75 3.0625q0.75 1.0625 2.15625 1.0625q1.375 0 2.140625 -1.046875q0.765625 -1.0625 0.765625 -3.359375q0 -1.96875 -0.765625 -3.046875q-0.765625 -1.078125 -2.15625 -1.078125q-1.390625 0 -2.140625 1.078125q-0.75 1.0625 -0.75 3.328125zm11.306641 -0.28125q0 -2.09375 0.796875 -3.734375q0.8125 -1.640625 2.328125 -2.53125q1.515625 -0.90625 3.53125 -0.90625q2.84375 0 4.640625 1.75q1.8125 1.734375 2.015625 4.734375l0.03125 0.96875q0 3.234375 -1.8125 5.203125q-1.8125 1.953125 -4.859375 1.953125q-3.046875 0 -4.859375 -1.953125q-1.8125 -1.953125 -1.8125 -5.3125l0 -0.171875zm3.765625 0.28125q0 2.0 0.75 3.0625q0.75 1.0625 2.15625 1.0625q1.375 0 2.140625 -1.046875q0.765625 -1.0625 0.765625 -3.359375q0 -1.96875 -0.765625 -3.046875q-0.765625 -1.078125 -2.15625 -1.078125q-1.390625 0 -2.140625 1.078125q-0.75 1.0625 -0.75 3.328125zm15.86908 6.890625l-3.78125 0l0 -20.0l3.78125 0l0 20.0zm10.723816 -3.890625q0 -0.6875 -0.6875 -1.078125q-0.6875 -0.40625 -2.1875 -0.71875q-5.03125 -1.046875 -5.03125 -4.265625q0 -1.875 1.546875 -3.125q1.5625 -1.265625 4.078125 -1.265625q2.671875 0 4.28125 1.265625q1.609375 1.265625 1.609375 3.28125l-3.765625 0q0 -0.8125 -0.515625 -1.328125q-0.515625 -0.53125 -1.625 -0.53125q-0.953125 0 -1.46875 0.4375q-0.515625 0.421875 -0.515625 1.078125q0 0.625 0.578125 1.015625q0.59375 0.375 2.0 0.65625q1.40625 0.28125 2.375 0.640625q2.984375 1.09375 2.984375 3.78125q0 1.921875 -1.65625 3.125q-1.65625 1.1875 -4.265625 1.1875q-1.78125 0 -3.15625 -0.625q-1.359375 -0.640625 -2.140625 -1.734375q-0.78125 -1.109375 -0.78125 -2.390625l3.5625 0q0.046875 1.015625 0.734375 1.546875q0.703125 0.53125 1.859375 0.53125q1.078125 0 1.625 -0.40625q0.5625 -0.421875 0.5625 -1.078125z" fill-rule="nonzero"/><path fill="#000000" fill-opacity="0.0" d="m625.1155 246.88977l177.29132 0l0 195.68503l-177.29132 0z" fill-rule="evenodd"/><path fill="#595959" d="m637.34985 264.52725l0 11.78125q0 3.046875 -2.765625 3.046875q-0.59375 0 -1.109375 -0.171875l0 -1.453125q0.3125 0.078125 0.828125 0.078125q0.609375 0 0.921875 -0.328125q0.3125 -0.3125 0.3125 -1.125l0 -11.828125l1.8125 0zm-2.0 -2.8125q0 -0.421875 0.265625 -0.734375q0.28125 -0.3125 0.796875 -0.3125q0.53125 0 0.796875 0.3125q0.28125 0.296875 0.28125 0.734375q0 0.4375 -0.28125 0.734375q-0.265625 0.296875 -0.796875 0.296875q-0.53125 0 -0.796875 -0.296875q-0.265625 -0.296875 -0.265625 -0.734375zm11.431641 13.375q-0.15625 -0.3125 -0.25 -1.109375q-1.265625 1.3125 -3.015625 1.3125q-1.5625 0 -2.5625 -0.890625q-1.0 -0.890625 -1.0 -2.25q0 -1.640625 1.25 -2.546875q1.265625 -0.921875 3.53125 -0.921875l1.765625 0l0 -0.828125q0 -0.953125 -0.578125 -1.515625q-0.5625 -0.5625 -1.65625 -0.5625q-0.96875 0 -1.625 0.5q-0.65625 0.484375 -0.65625 1.171875l-1.8125 0q0 -0.78125 0.5625 -1.515625q0.5625 -0.75 1.515625 -1.171875q0.96875 -0.4375 2.125 -0.4375q1.828125 0 2.859375 0.921875q1.03125 0.90625 1.078125 2.515625l0 4.859375q0 1.453125 0.359375 2.3125l0 0.15625l-1.890625 0zm-3.0 -1.375q0.859375 0 1.609375 -0.4375q0.765625 -0.4375 1.109375 -1.140625l0 -2.171875l-1.421875 0q-3.3125 0 -3.3125 1.9375q0 0.859375 0.5625 1.34375q0.5625 0.46875 1.453125 0.46875zm10.701172 -1.078125l2.609375 -8.109375l1.84375 0l-3.78125 10.5625l-1.375 0l-3.828125 -10.5625l1.84375 0l2.6875 8.109375zm12.572266 2.453125q-0.15625 -0.3125 -0.25 -1.109375q-1.265625 1.3125 -3.015625 1.3125q-1.5625 0 -2.5625 -0.890625q-1.0 -0.890625 -1.0 -2.25q0 -1.640625 1.25 -2.546875q1.265625 -0.921875 3.53125 -0.921875l1.765625 0l0 -0.828125q0 -0.953125 -0.578125 -1.515625q-0.5625 -0.5625 -1.65625 -0.5625q-0.96875 0 -1.625 0.5q-0.65625 0.484375 -0.65625 1.171875l-1.8125 0q0 -0.78125 0.5625 -1.515625q0.5625 -0.75 1.515625 -1.171875q0.96875 -0.4375 2.125 -0.4375q1.828125 0 2.859375 0.921875q1.03125 0.90625 1.078125 2.515625l0 4.859375q0 1.453125 0.359375 2.3125l0 0.15625l-1.890625 0zm-3.0 -1.375q0.859375 0 1.609375 -0.4375q0.765625 -0.4375 1.109375 -1.140625l0 -2.171875l-1.421875 0q-3.3125 0 -3.3125 1.9375q0 0.859375 0.5625 1.34375q0.5625 0.46875 1.453125 0.46875zm11.597656 0.09375q0.96875 0 1.6875 -0.578125q0.71875 -0.59375 0.796875 -1.46875l1.71875 0q-0.0625 0.90625 -0.640625 1.734375q-0.5625 0.8125 -1.53125 1.3125q-0.953125 0.484375 -2.03125 0.484375q-2.15625 0 -3.4375 -1.4375q-1.265625 -1.453125 -1.265625 -3.953125l0 -0.296875q0 -1.546875 0.5625 -2.75q0.5625 -1.203125 1.625 -1.859375q1.0625 -0.671875 2.5 -0.671875q1.78125 0 2.953125 1.0625q1.1875 1.0625 1.265625 2.765625l-1.71875 0q-0.078125 -1.015625 -0.78125 -1.671875q-0.6875 -0.671875 -1.71875 -0.671875q-1.375 0 -2.140625 1.0q-0.75 0.984375 -0.75 2.859375l0 0.34375q0 1.828125 0.75 2.8125q0.75 0.984375 2.15625 0.984375z" fill-rule="nonzero"/><path fill="#595959" d="m637.34985 288.52725l0 11.78125q0 3.046875 -2.765625 3.046875q-0.59375 0 -1.109375 -0.171875l0 -1.453125q0.3125 0.078125 0.828125 0.078125q0.609375 0 0.921875 -0.328125q0.3125 -0.3125 0.3125 -1.125l0 -11.828125l1.8125 0zm-2.0 -2.8125q0 -0.421875 0.265625 -0.734375q0.28125 -0.3125 0.796875 -0.3125q0.53125 0 0.796875 0.3125q0.28125 0.296875 0.28125 0.734375q0 0.4375 -0.28125 0.734375q-0.265625 0.296875 -0.796875 0.296875q-0.53125 0 -0.796875 -0.296875q-0.265625 -0.296875 -0.265625 -0.734375zm11.431641 13.375q-0.15625 -0.3125 -0.25 -1.109375q-1.265625 1.3125 -3.015625 1.3125q-1.5625 0 -2.5625 -0.890625q-1.0 -0.890625 -1.0 -2.25q0 -1.640625 1.25 -2.546875q1.265625 -0.921875 3.53125 -0.921875l1.765625 0l0 -0.828125q0 -0.953125 -0.578125 -1.515625q-0.5625 -0.5625 -1.65625 -0.5625q-0.96875 0 -1.625 0.5q-0.65625 0.484375 -0.65625 1.171875l-1.8125 0q0 -0.78125 0.5625 -1.515625q0.5625 -0.75 1.515625 -1.171875q0.96875 -0.4375 2.125 -0.4375q1.828125 0 2.859375 0.921875q1.03125 0.90625 1.078125 2.515625l0 4.859375q0 1.453125 0.359375 2.3125l0 0.15625l-1.890625 0zm-3.0 -1.375q0.859375 0 1.609375 -0.4375q0.765625 -0.4375 1.109375 -1.140625l0 -2.171875l-1.421875 0q-3.3125 0 -3.3125 1.9375q0 0.859375 0.5625 1.34375q0.5625 0.46875 1.453125 0.46875zm10.701172 -1.078125l2.609375 -8.109375l1.84375 0l-3.78125 10.5625l-1.375 0l-3.828125 -10.5625l1.84375 0l2.6875 8.109375zm12.572266 2.453125q-0.15625 -0.3125 -0.25 -1.109375q-1.265625 1.3125 -3.015625 1.3125q-1.5625 0 -2.5625 -0.890625q-1.0 -0.890625 -1.0 -2.25q0 -1.640625 1.25 -2.546875q1.265625 -0.921875 3.53125 -0.921875l1.765625 0l0 -0.828125q0 -0.953125 -0.578125 -1.515625q-0.5625 -0.5625 -1.65625 -0.5625q-0.96875 0 -1.625 0.5q-0.65625 0.484375 -0.65625 1.171875l-1.8125 0q0 -0.78125 0.5625 -1.515625q0.5625 -0.75 1.515625 -1.171875q0.96875 -0.4375 2.125 -0.4375q1.828125 0 2.859375 0.921875q1.03125 0.90625 1.078125 2.515625l0 4.859375q0 1.453125 0.359375 2.3125l0 0.15625l-1.890625 0zm-3.0 -1.375q0.859375 0 1.609375 -0.4375q0.765625 -0.4375 1.109375 -1.140625l0 -2.171875l-1.421875 0q-3.3125 0 -3.3125 1.9375q0 0.859375 0.5625 1.34375q0.5625 0.46875 1.453125 0.46875z" fill-rule="nonzero"/><path fill="#595959" d="m637.34985 312.52725l0 11.78125q0 3.046875 -2.765625 3.046875q-0.59375 0 -1.109375 -0.171875l0 -1.453125q0.3125 0.078125 0.828125 0.078125q0.609375 0 0.921875 -0.328125q0.3125 -0.3125 0.3125 -1.125l0 -11.828125l1.8125 0zm-2.0 -2.8125q0 -0.421875 0.265625 -0.734375q0.28125 -0.3125 0.796875 -0.3125q0.53125 0 0.796875 0.3125q0.28125 0.296875 0.28125 0.734375q0 0.4375 -0.28125 0.734375q-0.265625 0.296875 -0.796875 0.296875q-0.53125 0 -0.796875 -0.296875q-0.265625 -0.296875 -0.265625 -0.734375zm11.431641 13.375q-0.15625 -0.3125 -0.25 -1.109375q-1.265625 1.3125 -3.015625 1.3125q-1.5625 0 -2.5625 -0.890625q-1.0 -0.890625 -1.0 -2.25q0 -1.640625 1.25 -2.546875q1.265625 -0.921875 3.53125 -0.921875l1.765625 0l0 -0.828125q0 -0.953125 -0.578125 -1.515625q-0.5625 -0.5625 -1.65625 -0.5625q-0.96875 0 -1.625 0.5q-0.65625 0.484375 -0.65625 1.171875l-1.8125 0q0 -0.78125 0.5625 -1.515625q0.5625 -0.75 1.515625 -1.171875q0.96875 -0.4375 2.125 -0.4375q1.828125 0 2.859375 0.921875q1.03125 0.90625 1.078125 2.515625l0 4.859375q0 1.453125 0.359375 2.3125l0 0.15625l-1.890625 0zm-3.0 -1.375q0.859375 0 1.609375 -0.4375q0.765625 -0.4375 1.109375 -1.140625l0 -2.171875l-1.421875 0q-3.3125 0 -3.3125 1.9375q0 0.859375 0.5625 1.34375q0.5625 0.46875 1.453125 0.46875zm10.701172 -1.078125l2.609375 -8.109375l1.84375 0l-3.78125 10.5625l-1.375 0l-3.828125 -10.5625l1.84375 0l2.6875 8.109375zm12.572266 2.453125q-0.15625 -0.3125 -0.25 -1.109375q-1.265625 1.3125 -3.015625 1.3125q-1.5625 0 -2.5625 -0.890625q-1.0 -0.890625 -1.0 -2.25q0 -1.640625 1.25 -2.546875q1.265625 -0.921875 3.53125 -0.921875l1.765625 0l0 -0.828125q0 -0.953125 -0.578125 -1.515625q-0.5625 -0.5625 -1.65625 -0.5625q-0.96875 0 -1.625 0.5q-0.65625 0.484375 -0.65625 1.171875l-1.8125 0q0 -0.78125 0.5625 -1.515625q0.5625 -0.75 1.515625 -1.171875q0.96875 -0.4375 2.125 -0.4375q1.828125 0 2.859375 0.921875q1.03125 0.90625 1.078125 2.515625l0 4.859375q0 1.453125 0.359375 2.3125l0 0.15625l-1.890625 0zm-3.0 -1.375q0.859375 0 1.609375 -0.4375q0.765625 -0.4375 1.109375 -1.140625l0 -2.171875l-1.421875 0q-3.3125 0 -3.3125 1.9375q0 0.859375 0.5625 1.34375q0.5625 0.46875 1.453125 0.46875zm16.285156 -3.796875q0 2.421875 -1.109375 3.90625q-1.09375 1.46875 -2.984375 1.46875q-1.921875 0 -3.03125 -1.234375l0 5.09375l-1.796875 0l0 -14.625l1.640625 0l0.09375 1.171875q1.09375 -1.375 3.0625 -1.375q1.90625 0 3.015625 1.4375q1.109375 1.4375 1.109375 4.0l0 0.15625zm-1.8125 -0.203125q0 -1.78125 -0.765625 -2.8125q-0.75 -1.046875 -2.078125 -1.046875q-1.640625 0 -2.46875 1.453125l0 5.0625q0.8125 1.4375 2.484375 1.4375q1.296875 0 2.0625 -1.03125q0.765625 -1.03125 0.765625 -3.0625z" fill-rule="nonzero"/><path fill="#595959" d="m642.0061 347.08975q-0.15625 -0.3125 -0.25 -1.109375q-1.265625 1.3125 -3.015625 1.3125q-1.5625 0 -2.5625 -0.890625q-1.0 -0.890625 -1.0 -2.25q0 -1.640625 1.25 -2.546875q1.265625 -0.921875 3.53125 -0.921875l1.765625 0l0 -0.828125q0 -0.953125 -0.578125 -1.515625q-0.5625 -0.5625 -1.65625 -0.5625q-0.96875 0 -1.625 0.5q-0.65625 0.484375 -0.65625 1.171875l-1.8125 0q0 -0.78125 0.5625 -1.515625q0.5625 -0.75 1.515625 -1.171875q0.96875 -0.4375 2.125 -0.4375q1.828125 0 2.859375 0.921875q1.03125 0.90625 1.078125 2.515625l0 4.859375q0 1.453125 0.359375 2.3125l0 0.15625l-1.890625 0zm-3.0 -1.375q0.859375 0 1.609375 -0.4375q0.765625 -0.4375 1.109375 -1.140625l0 -2.171875l-1.421875 0q-3.3125 0 -3.3125 1.9375q0 0.859375 0.5625 1.34375q0.5625 0.46875 1.453125 0.46875zm16.285156 -3.796875q0 2.421875 -1.109375 3.90625q-1.09375 1.46875 -2.984375 1.46875q-1.921875 0 -3.03125 -1.234375l0 5.09375l-1.796875 0l0 -14.625l1.640625 0l0.09375 1.171875q1.09375 -1.375 3.0625 -1.375q1.90625 0 3.015625 1.4375q1.109375 1.4375 1.109375 4.0l0 0.15625zm-1.8125 -0.203125q0 -1.78125 -0.765625 -2.8125q-0.75 -1.046875 -2.078125 -1.046875q-1.640625 0 -2.46875 1.453125l0 5.0625q0.8125 1.4375 2.484375 1.4375q1.296875 0 2.0625 -1.03125q0.765625 -1.03125 0.765625 -3.0625zm6.548828 -7.75l0 2.5625l1.984375 0l0 1.390625l-1.984375 0l0 6.546875q0 0.640625 0.265625 0.96875q0.265625 0.3125 0.90625 0.3125q0.3125 0 0.859375 -0.125l0 1.46875q-0.71875 0.203125 -1.390625 0.203125q-1.203125 0 -1.828125 -0.734375q-0.609375 -0.734375 -0.609375 -2.09375l0 -6.546875l-1.921875 0l0 -1.390625l1.921875 0l0 -2.5625l1.796875 0z" fill-rule="nonzero"/><path fill="#595959" d="m637.34985 360.52725l0 11.78125q0 3.046875 -2.765625 3.046875q-0.59375 0 -1.109375 -0.171875l0 -1.453125q0.3125 0.078125 0.828125 0.078125q0.609375 0 0.921875 -0.328125q0.3125 -0.3125 0.3125 -1.125l0 -11.828125l1.8125 0zm-2.0 -2.8125q0 -0.421875 0.265625 -0.734375q0.28125 -0.3125 0.796875 -0.3125q0.53125 0 0.796875 0.3125q0.28125 0.296875 0.28125 0.734375q0 0.4375 -0.28125 0.734375q-0.265625 0.296875 -0.796875 0.296875q-0.53125 0 -0.796875 -0.296875q-0.265625 -0.296875 -0.265625 -0.734375zm11.431641 13.375q-0.15625 -0.3125 -0.25 -1.109375q-1.265625 1.3125 -3.015625 1.3125q-1.5625 0 -2.5625 -0.890625q-1.0 -0.890625 -1.0 -2.25q0 -1.640625 1.25 -2.546875q1.265625 -0.921875 3.53125 -0.921875l1.765625 0l0 -0.828125q0 -0.953125 -0.578125 -1.515625q-0.5625 -0.5625 -1.65625 -0.5625q-0.96875 0 -1.625 0.5q-0.65625 0.484375 -0.65625 1.171875l-1.8125 0q0 -0.78125 0.5625 -1.515625q0.5625 -0.75 1.515625 -1.171875q0.96875 -0.4375 2.125 -0.4375q1.828125 0 2.859375 0.921875q1.03125 0.90625 1.078125 2.515625l0 4.859375q0 1.453125 0.359375 2.3125l0 0.15625l-1.890625 0zm-3.0 -1.375q0.859375 0 1.609375 -0.4375q0.765625 -0.4375 1.109375 -1.140625l0 -2.171875l-1.421875 0q-3.3125 0 -3.3125 1.9375q0 0.859375 0.5625 1.34375q0.5625 0.46875 1.453125 0.46875zm12.457031 -7.578125q-0.40625 -0.0625 -0.875 -0.0625q-1.78125 0 -2.421875 1.515625l0 7.5l-1.796875 0l0 -10.5625l1.75 0l0.03125 1.21875q0.890625 -1.421875 2.515625 -1.421875q0.53125 0 0.796875 0.140625l0 1.671875z" fill-rule="nonzero"/><path fill="#595959" d="m637.34985 384.52725l0 11.78125q0 3.046875 -2.765625 3.046875q-0.59375 0 -1.109375 -0.171875l0 -1.453125q0.3125 0.078125 0.828125 0.078125q0.609375 0 0.921875 -0.328125q0.3125 -0.3125 0.3125 -1.125l0 -11.828125l1.8125 0zm-2.0 -2.8125q0 -0.421875 0.265625 -0.734375q0.28125 -0.3125 0.796875 -0.3125q0.53125 0 0.796875 0.3125q0.28125 0.296875 0.28125 0.734375q0 0.4375 -0.28125 0.734375q-0.265625 0.296875 -0.796875 0.296875q-0.53125 0 -0.796875 -0.296875q-0.265625 -0.296875 -0.265625 -0.734375zm4.4628906 8.0q0 -2.421875 1.15625 -3.90625q1.15625 -1.484375 3.015625 -1.484375q1.859375 0 2.9375 1.265625l0 -5.5l1.8125 0l0 15.0l-1.65625 0l-0.09375 -1.140625q-1.078125 1.34375 -3.015625 1.34375q-1.828125 0 -3.0 -1.5q-1.15625 -1.515625 -1.15625 -3.9375l0 -0.140625zm1.8125 0.203125q0 1.796875 0.734375 2.8125q0.75 1.015625 2.0625 1.015625q1.71875 0 2.5 -1.53125l0 -4.859375q-0.796875 -1.5 -2.484375 -1.5q-1.328125 0 -2.078125 1.03125q-0.734375 1.03125 -0.734375 3.03125zm18.857422 0q0 2.421875 -1.109375 3.90625q-1.109375 1.46875 -2.984375 1.46875q-2.015625 0 -3.109375 -1.421875l-0.078125 1.21875l-1.65625 0l0 -15.0l1.796875 0l0 5.59375q1.09375 -1.359375 3.015625 -1.359375q1.921875 0 3.015625 1.453125q1.109375 1.453125 1.109375 3.984375l0 0.15625zm-1.8125 -0.203125q0 -1.84375 -0.71875 -2.84375q-0.703125 -1.015625 -2.03125 -1.015625q-1.796875 0 -2.578125 1.671875l0 4.5625q0.828125 1.65625 2.59375 1.65625q1.296875 0 2.015625 -1.0q0.71875 -1.0 0.71875 -3.03125z" fill-rule="nonzero"/><path fill="#595959" d="m637.34985 408.52725l0 11.78125q0 3.046875 -2.765625 3.046875q-0.59375 0 -1.109375 -0.171875l0 -1.453125q0.3125 0.078125 0.828125 0.078125q0.609375 0 0.921875 -0.328125q0.3125 -0.3125 0.3125 -1.125l0 -11.828125l1.8125 0zm-2.0 -2.8125q0 -0.421875 0.265625 -0.734375q0.28125 -0.3125 0.796875 -0.3125q0.53125 0 0.796875 0.3125q0.28125 0.296875 0.28125 0.734375q0 0.4375 -0.28125 0.734375q-0.265625 0.296875 -0.796875 0.296875q-0.53125 0 -0.796875 -0.296875q-0.265625 -0.296875 -0.265625 -0.734375zm11.431641 13.375q-0.15625 -0.3125 -0.25 -1.109375q-1.265625 1.3125 -3.015625 1.3125q-1.5625 0 -2.5625 -0.890625q-1.0 -0.890625 -1.0 -2.25q0 -1.640625 1.25 -2.546875q1.265625 -0.921875 3.53125 -0.921875l1.765625 0l0 -0.828125q0 -0.953125 -0.578125 -1.515625q-0.5625 -0.5625 -1.65625 -0.5625q-0.96875 0 -1.625 0.5q-0.65625 0.484375 -0.65625 1.171875l-1.8125 0q0 -0.78125 0.5625 -1.515625q0.5625 -0.75 1.515625 -1.171875q0.96875 -0.4375 2.125 -0.4375q1.828125 0 2.859375 0.921875q1.03125 0.90625 1.078125 2.515625l0 4.859375q0 1.453125 0.359375 2.3125l0 0.15625l-1.890625 0zm-3.0 -1.375q0.859375 0 1.609375 -0.4375q0.765625 -0.4375 1.109375 -1.140625l0 -2.171875l-1.421875 0q-3.3125 0 -3.3125 1.9375q0 0.859375 0.5625 1.34375q0.5625 0.46875 1.453125 0.46875zm10.701172 -1.078125l2.609375 -8.109375l1.84375 0l-3.78125 10.5625l-1.375 0l-3.828125 -10.5625l1.84375 0l2.6875 8.109375zm12.572266 2.453125q-0.15625 -0.3125 -0.25 -1.109375q-1.265625 1.3125 -3.015625 1.3125q-1.5625 0 -2.5625 -0.890625q-1.0 -0.890625 -1.0 -2.25q0 -1.640625 1.25 -2.546875q1.265625 -0.921875 3.53125 -0.921875l1.765625 0l0 -0.828125q0 -0.953125 -0.578125 -1.515625q-0.5625 -0.5625 -1.65625 -0.5625q-0.96875 0 -1.625 0.5q-0.65625 0.484375 -0.65625 1.171875l-1.8125 0q0 -0.78125 0.5625 -1.515625q0.5625 -0.75 1.515625 -1.171875q0.96875 -0.4375 2.125 -0.4375q1.828125 0 2.859375 0.921875q1.03125 0.90625 1.078125 2.515625l0 4.859375q0 1.453125 0.359375 2.3125l0 0.15625l-1.890625 0zm-3.0 -1.375q0.859375 0 1.609375 -0.4375q0.765625 -0.4375 1.109375 -1.140625l0 -2.171875l-1.421875 0q-3.3125 0 -3.3125 1.9375q0 0.859375 0.5625 1.34375q0.5625 0.46875 1.453125 0.46875zm6.9101562 -4.0q0 -2.421875 1.15625 -3.90625q1.15625 -1.484375 3.015625 -1.484375q1.859375 0 2.9375 1.265625l0 -5.5l1.8125 0l0 15.0l-1.65625 0l-0.09375 -1.140625q-1.078125 1.34375 -3.015625 1.34375q-1.828125 0 -3.0 -1.5q-1.15625 -1.515625 -1.15625 -3.9375l0 -0.140625zm1.8125 0.203125q0 1.796875 0.734375 2.8125q0.75 1.015625 2.0625 1.015625q1.71875 0 2.5 -1.53125l0 -4.859375q-0.796875 -1.5 -2.484375 -1.5q-1.328125 0 -2.078125 1.03125q-0.734375 1.03125 -0.734375 3.03125zm9.435547 -0.203125q0 -1.5625 0.609375 -2.796875q0.609375 -1.25 1.6875 -1.921875q1.09375 -0.671875 2.5 -0.671875q2.15625 0 3.484375 1.5q1.34375 1.484375 1.34375 3.96875l0 0.125q0 1.546875 -0.59375 2.78125q-0.59375 1.21875 -1.703125 1.90625q-1.09375 0.6875 -2.515625 0.6875q-2.140625 0 -3.484375 -1.5q-1.328125 -1.5 -1.328125 -3.953125l0 -0.125zm1.8125 0.203125q0 1.765625 0.8125 2.828125q0.828125 1.0625 2.1875 1.0625q1.375 0 2.1875 -1.078125q0.8125 -1.078125 0.8125 -3.015625q0 -1.75 -0.828125 -2.828125q-0.828125 -1.078125 -2.1875 -1.078125q-1.34375 0 -2.171875 1.0625q-0.8125 1.0625 -0.8125 3.046875zm14.3125 3.890625q0.96875 0 1.6875 -0.578125q0.71875 -0.59375 0.796875 -1.46875l1.71875 0q-0.0625 0.90625 -0.640625 1.734375q-0.5625 0.8125 -1.53125 1.3125q-0.953125 0.484375 -2.03125 0.484375q-2.15625 0 -3.4375 -1.4375q-1.265625 -1.453125 -1.265625 -3.953125l0 -0.296875q0 -1.546875 0.5625 -2.75q0.5625 -1.203125 1.625 -1.859375q1.0625 -0.671875 2.5 -0.671875q1.78125 0 2.953125 1.0625q1.1875 1.0625 1.265625 2.765625l-1.71875 0q-0.078125 -1.015625 -0.78125 -1.671875q-0.6875 -0.671875 -1.71875 -0.671875q-1.375 0 -2.140625 1.0q-0.75 0.984375 -0.75 2.859375l0 0.34375q0 1.828125 0.75 2.8125q0.75 0.984375 2.15625 0.984375z" fill-rule="nonzero"/><path fill="#595959" d="m635.5686 442.13663q0 -0.46875 0.28125 -0.78125q0.28125 -0.3125 0.828125 -0.3125q0.5625 0 0.84375 0.3125q0.296875 0.3125 0.296875 0.78125q0 0.453125 -0.296875 0.765625q-0.28125 0.296875 -0.84375 0.296875q-0.546875 0 -0.828125 -0.296875q-0.28125 -0.3125 -0.28125 -0.765625zm4.265625 0q0 -0.46875 0.28125 -0.78125q0.28125 -0.3125 0.828125 -0.3125q0.5625 0 0.84375 0.3125q0.296875 0.3125 0.296875 0.78125q0 0.453125 -0.296875 0.765625q-0.28125 0.296875 -0.84375 0.296875q-0.546875 0 -0.828125 -0.296875q-0.28125 -0.3125 -0.28125 -0.765625zm4.046875 0q0 -0.46875 0.28125 -0.78125q0.28125 -0.3125 0.828125 -0.3125q0.5625 0 0.84375 0.3125q0.296875 0.3125 0.296875 0.78125q0 0.453125 -0.296875 0.765625q-0.28125 0.296875 -0.84375 0.296875q-0.546875 0 -0.828125 -0.296875q-0.28125 -0.3125 -0.28125 -0.765625z" fill-rule="nonzero"/></g></svg>