<svg version="1.1" viewBox="0.0 0.0 960.0 540.0" fill="none" stroke="none" stroke-linecap="square" stroke-miterlimit="10" xmlns:xlink="http://www.w3.org/1999/xlink" xmlns="http://www.w3.org/2000/svg"><clipPath id="g261d7dcb326_1_175.0"><path d="m0 0l960.0 0l0 540.0l-960.0 0l0 -540.0z" clip-rule="nonzero"/></clipPath><g clip-path="url(#g261d7dcb326_1_175.0)"><path fill="#ffffff" d="m0 0l960.0 0l0 540.0l-960.0 0z" fill-rule="evenodd"/><path fill="#cfe2f3" d="m47.937008 106.715546l0 0c0 -45.091114 36.55357 -81.644684 81.64467 -81.644684l700.8367 0c21.653503 0 42.420166 8.601826 57.731506 23.913174c15.31134 15.311348 23.913147 36.077988 23.913147 57.731506l0 326.5689c0 45.091125 -36.55359 81.644684 -81.64465 81.644684l-700.8367 0c-45.091103 0 -81.64467 -36.55356 -81.64467 -81.644684z" fill-rule="evenodd"/><path stroke="#cfe2f3" stroke-width="1.0" stroke-linejoin="round" stroke-linecap="butt" d="m47.937008 106.715546l0 0c0 -45.091114 36.55357 -81.644684 81.64467 -81.644684l700.8367 0c21.653503 0 42.420166 8.601826 57.731506 23.913174c15.31134 15.311348 23.913147 36.077988 23.913147 57.731506l0 326.5689c0 45.091125 -36.55359 81.644684 -81.64465 81.644684l-700.8367 0c-45.091103 0 -81.64467 -36.55356 -81.64467 -81.644684z" fill-rule="evenodd"/><path fill="#ffe599" d="m80.42782 133.67494l0 0c0 -10.961845 8.88633 -19.848167 19.848167 -19.848167l316.46112 0c5.2640686 0 10.3125305 2.0911407 14.03479 5.8133926c3.7222595 3.722252 5.813385 8.770706 5.813385 14.034775l0 79.390274c0 10.961838 -8.886322 19.848175 -19.848175 19.848175l-316.46112 0c-10.961838 0 -19.848167 -8.886337 -19.848167 -19.848175z" fill-rule="evenodd"/><path stroke="#ffe599" stroke-width="1.0" stroke-linejoin="round" stroke-linecap="butt" d="m80.42782 133.67494l0 0c0 -10.961845 8.88633 -19.848167 19.848167 -19.848167l316.46112 0c5.2640686 0 10.3125305 2.0911407 14.03479 5.8133926c3.7222595 3.722252 5.813385 8.770706 5.813385 14.034775l0 79.390274c0 10.961838 -8.886322 19.848175 -19.848175 19.848175l-316.46112 0c-10.961838 0 -19.848167 -8.886337 -19.848167 -19.848175z" fill-rule="evenodd"/><path fill="#000000" d="m197.16982 144.65758q-0.21875 3.0625 -2.25 4.828125q-2.03125 1.75 -5.375 1.75q-3.640625 0 -5.734375 -2.453125q-2.078125 -2.453125 -2.078125 -6.734375l0 -1.171875q0 -2.734375 0.953125 -4.8125q0.96875 -2.078125 2.75 -3.1875q1.796875 -1.125 4.171875 -1.125q3.28125 0 5.28125 1.765625q2.0 1.75 2.3125 4.9375l-3.90625 0q-0.140625 -1.84375 -1.015625 -2.671875q-0.875 -0.828125 -2.671875 -0.828125q-1.953125 0 -2.921875 1.40625q-0.96875 1.390625 -1.0 4.34375l0 1.421875q0 3.078125 0.921875 4.5q0.9375 1.421875 2.9375 1.421875q1.8125 0 2.703125 -0.828125q0.890625 -0.828125 1.03125 -2.5625l3.890625 0zm6.300476 6.3125l-3.78125 0l0 -20.0l3.78125 0l0 20.0zm11.255051 0q-0.265625 -0.5 -0.375 -1.265625q-1.375 1.53125 -3.5625 1.53125q-2.0625 0 -3.421875 -1.203125q-1.359375 -1.203125 -1.359375 -3.015625q0 -2.25 1.65625 -3.4375q1.65625 -1.203125 4.796875 -1.21875l1.734375 0l0 -0.796875q0 -0.984375 -0.515625 -1.5625q-0.5 -0.59375 -1.578125 -0.59375q-0.9375 0 -1.484375 0.46875q-0.546875 0.453125 -0.546875 1.234375l-3.75 0q0 -1.21875 0.75 -2.25q0.75 -1.046875 2.125 -1.640625q1.390625 -0.59375 3.109375 -0.59375q2.59375 0 4.125 1.3125q1.53125 1.296875 1.53125 3.671875l0 6.109375q0.015625 2.0 0.5625 3.03125l0 0.21875l-3.796875 0zm-3.109375 -2.609375q0.828125 0 1.53125 -0.375q0.703125 -0.375 1.046875 -1.0l0 -2.421875l-1.40625 0q-2.828125 0 -3.015625 1.953125l-0.015625 0.21875q0 0.703125 0.5 1.171875q0.5 0.453125 1.359375 0.453125zm16.869415 -1.28125q0 -0.6875 -0.6875 -1.078125q-0.6875 -0.40625 -2.1875 -0.71875q-5.03125 -1.046875 -5.03125 -4.265625q0 -1.875 1.546875 -3.125q1.5625 -1.265625 4.078125 -1.265625q2.671875 0 4.28125 1.265625q1.609375 1.265625 1.609375 3.28125l-3.765625 0q0 -0.8125 -0.515625 -1.328125q-0.515625 -0.53125 -1.625 -0.53125q-0.953125 0 -1.46875 0.4375q-0.515625 0.421875 -0.515625 1.078125q0 0.625 0.578125 1.015625q0.59375 0.375 2.0 0.65625q1.40625 0.28125 2.375 0.640625q2.984375 1.09375 2.984375 3.78125q0 1.921875 -1.65625 3.125q-1.65625 1.1875 -4.265625 1.1875q-1.78125 0 -3.15625 -0.625q-1.359375 -0.640625 -2.140625 -1.734375q-0.78125 -1.109375 -0.78125 -2.390625l3.5625 0q0.046875 1.015625 0.734375 1.546875q0.703125 0.53125 1.859375 0.53125q1.078125 0 1.625 -0.40625q0.5625 -0.421875 0.5625 -1.078125zm13.705582 0q0 -0.6875 -0.6875 -1.078125q-0.6875 -0.40625 -2.1875 -0.71875q-5.03125 -1.046875 -5.03125 -4.265625q0 -1.875 1.546875 -3.125q1.5625 -1.265625 4.078125 -1.265625q2.671875 0 4.28125 1.265625q1.609375 1.265625 1.609375 3.28125l-3.765625 0q0 -0.8125 -0.515625 -1.328125q-0.515625 -0.53125 -1.625 -0.53125q-0.953125 0 -1.46875 0.4375q-0.515625 0.421875 -0.515625 1.078125q0 0.625 0.578125 1.015625q0.59375 0.375 2.0 0.65625q1.40625 0.28125 2.375 0.640625q2.984375 1.09375 2.984375 3.78125q0 1.921875 -1.65625 3.125q-1.65625 1.1875 -4.265625 1.1875q-1.78125 0 -3.15625 -0.625q-1.359375 -0.640625 -2.140625 -1.734375q-0.78125 -1.109375 -0.78125 -2.390625l3.5625 0q0.046875 1.015625 0.734375 1.546875q0.703125 0.53125 1.859375 0.53125q1.078125 0 1.625 -0.40625q0.5625 -0.421875 0.5625 -1.078125zm16.859238 0.75l8.296875 0l0 3.140625l-12.203125 0l0 -18.953125l3.90625 0l0 15.8125zm9.700104 -4.03125q0 -2.09375 0.796875 -3.734375q0.8125 -1.640625 2.328125 -2.53125q1.515625 -0.90625 3.53125 -0.90625q2.84375 0 4.640625 1.75q1.8125 1.734375 2.015625 4.734375l0.03125 0.96875q0 3.234375 -1.8125 5.203125q-1.8125 1.953125 -4.859375 1.953125q-3.046875 0 -4.859375 -1.953125q-1.8125 -1.953125 -1.8125 -5.3125l0 -0.171875zm3.765625 0.28125q0 2.0 0.75 3.0625q0.75 1.0625 2.15625 1.0625q1.375 0 2.140625 -1.046875q0.765625 -1.0625 0.765625 -3.359375q0 -1.96875 -0.765625 -3.046875q-0.765625 -1.078125 -2.15625 -1.078125q-1.390625 0 -2.140625 1.078125q-0.75 1.0625 -0.75 3.328125zm20.05661 6.890625q-0.265625 -0.5 -0.375 -1.265625q-1.375 1.53125 -3.5625 1.53125q-2.0625 0 -3.421875 -1.203125q-1.359375 -1.203125 -1.359375 -3.015625q0 -2.25 1.65625 -3.4375q1.65625 -1.203125 4.796875 -1.21875l1.734375 0l0 -0.796875q0 -0.984375 -0.515625 -1.5625q-0.5 -0.59375 -1.578125 -0.59375q-0.9375 0 -1.484375 0.46875q-0.546875 0.453125 -0.546875 1.234375l-3.75 0q0 -1.21875 0.75 -2.25q0.75 -1.046875 2.125 -1.640625q1.390625 -0.59375 3.109375 -0.59375q2.59375 0 4.125 1.3125q1.53125 1.296875 1.53125 3.671875l0 6.109375q0.015625 2.0 0.5625 3.03125l0 0.21875l-3.796875 0zm-3.109375 -2.609375q0.828125 0 1.53125 -0.375q0.703125 -0.375 1.046875 -1.0l0 -2.421875l-1.40625 0q-2.828125 0 -3.015625 1.953125l-0.015625 0.21875q0 0.703125 0.5 1.171875q0.5 0.453125 1.359375 0.453125zm8.650665 -4.53125q0 -3.296875 1.46875 -5.25q1.484375 -1.953125 4.046875 -1.953125q2.0625 0 3.40625 1.53125l0 -7.1875l3.765625 0l0 20.0l-3.390625 0l-0.1875 -1.5q-1.40625 1.765625 -3.609375 1.765625q-2.5 0 -4.0 -1.953125q-1.5 -1.96875 -1.5 -5.453125zm3.765625 0.265625q0 1.984375 0.6875 3.046875q0.6875 1.046875 2.0 1.046875q1.75 0 2.46875 -1.46875l0 -5.5625q-0.703125 -1.46875 -2.4375 -1.46875q-2.71875 0 -2.71875 4.40625zm18.317047 7.140625q-3.09375 0 -5.046875 -1.90625q-1.9375 -1.90625 -1.9375 -5.0625l0 -0.359375q0 -2.125 0.8125 -3.796875q0.828125 -1.671875 2.328125 -2.578125q1.5 -0.90625 3.4375 -0.90625q2.890625 0 4.546875 1.828125q1.65625 1.8125 1.65625 5.15625l0 1.546875l-8.96875 0q0.1875 1.375 1.09375 2.21875q0.921875 0.828125 2.328125 0.828125q2.171875 0 3.40625 -1.578125l1.84375 2.0625q-0.84375 1.203125 -2.296875 1.875q-1.4375 0.671875 -3.203125 0.671875zm-0.421875 -11.5625q-1.125 0 -1.828125 0.765625q-0.6875 0.75 -0.875 2.15625l5.21875 0l0 -0.3125q-0.015625 -1.25 -0.671875 -1.921875q-0.65625 -0.6875 -1.84375 -0.6875zm16.267792 0.734375q-0.765625 -0.09375 -1.359375 -0.09375q-2.125 0 -2.796875 1.4375l0 9.21875l-3.765625 0l0 -14.078125l3.5625 0l0.109375 1.671875q1.125 -1.9375 3.125 -1.9375q0.625 0 1.171875 0.171875l-0.046875 3.609375z" fill-rule="nonzero"/><path fill="#000000" d="m250.68185 177.8607q0 -1.3125 0.734375 -2.421875q0.734375 -1.125 2.703125 -2.484375q-0.84375 -1.140625 -1.328125 -2.125q-0.484375 -1.0 -0.484375 -2.078125q0 -2.21875 1.390625 -3.609375q1.40625 -1.390625 3.78125 -1.390625q2.125 0 3.484375 1.265625q1.359375 1.265625 1.359375 3.15625q0 2.265625 -2.296875 4.0l-1.453125 1.046875l3.265625 3.796875q0.765625 -1.5 0.765625 -3.328125l3.203125 0q0 3.703125 -1.703125 5.984375l2.84375 3.296875l-4.28125 0l-0.96875 -1.125q-2.09375 1.390625 -4.8125 1.390625q-2.8125 0 -4.515625 -1.46875q-1.6875 -1.484375 -1.6875 -3.90625zm6.375 2.34375q1.359375 0 2.5625 -0.75l-3.734375 -4.3125l-0.265625 0.1875q-1.15625 0.984375 -1.15625 2.328125q0 1.140625 0.71875 1.84375q0.71875 0.703125 1.875 0.703125zm-1.375 -11.515625q0 0.984375 1.140625 2.46875l1.0 -0.671875q0.78125 -0.5 1.0625 -0.953125q0.296875 -0.46875 0.296875 -1.125q0 -0.65625 -0.484375 -1.125q-0.484375 -0.484375 -1.234375 -0.484375q-0.8125 0 -1.296875 0.515625q-0.484375 0.515625 -0.484375 1.375z" fill-rule="nonzero"/><path fill="#000000" d="m131.50098 214.97008l0 -18.953125l6.640625 0q3.453125 0 5.234375 1.328125q1.78125 1.3125 1.78125 3.875q0 1.390625 -0.71875 2.453125q-0.71875 1.046875 -1.984375 1.546875q1.453125 0.359375 2.296875 1.46875q0.84375 1.109375 0.84375 2.703125q0 2.734375 -1.75 4.140625q-1.75 1.40625 -4.96875 1.4375l-7.375 0zm3.90625 -8.25l0 5.109375l3.34375 0q1.390625 0 2.15625 -0.65625q0.78125 -0.65625 0.78125 -1.8125q0 -2.609375 -2.703125 -2.640625l-3.578125 0zm0 -2.765625l2.890625 0q2.953125 -0.046875 2.953125 -2.34375q0 -1.296875 -0.75 -1.859375q-0.75 -0.5625 -2.359375 -0.5625l-2.734375 0l0 4.765625zm18.120956 5.6875l2.609375 -8.75l4.03125 0l-5.671875 16.265625l-0.3125 0.734375q-1.25 2.765625 -4.15625 2.765625q-0.828125 0 -1.671875 -0.25l0 -2.84375l0.578125 0.015625q1.0625 0 1.59375 -0.328125q0.53125 -0.328125 0.828125 -1.078125l0.4375 -1.171875l-4.9375 -14.109375l4.0625 0l2.609375 8.75zm12.630188 -12.21875l0 3.46875l2.40625 0l0 2.75l-2.40625 0l0 7.03125q0 0.78125 0.296875 1.125q0.296875 0.328125 1.140625 0.328125q0.625 0 1.109375 -0.078125l0 2.84375q-1.109375 0.34375 -2.28125 0.34375q-3.953125 0 -4.03125 -4.0l0 -7.59375l-2.0625 0l0 -2.75l2.0625 0l0 -3.46875l3.765625 0zm10.975647 17.8125q-3.09375 0 -5.046875 -1.90625q-1.9375 -1.90625 -1.9375 -5.0625l0 -0.359375q0 -2.125 0.8125 -3.796875q0.828125 -1.671875 2.328125 -2.578125q1.5 -0.90625 3.4375 -0.90625q2.890625 0 4.546875 1.828125q1.65625 1.8125 1.65625 5.15625l0 1.546875l-8.96875 0q0.1875 1.375 1.09375 2.21875q0.921875 0.828125 2.328125 0.828125q2.171875 0 3.40625 -1.578125l1.84375 2.0625q-0.84375 1.203125 -2.296875 1.875q-1.4375 0.671875 -3.203125 0.671875zm-0.421875 -11.5625q-1.125 0 -1.828125 0.765625q-0.6875 0.75 -0.875 2.15625l5.21875 0l0 -0.3125q-0.015625 -1.25 -0.671875 -1.921875q-0.65625 -0.6875 -1.84375 -0.6875zm14.205307 8.53125q1.046875 0 1.6875 -0.578125q0.65625 -0.578125 0.6875 -1.53125l3.53125 0q-0.015625 1.4375 -0.78125 2.640625q-0.765625 1.1875 -2.109375 1.84375q-1.328125 0.65625 -2.953125 0.65625q-3.015625 0 -4.765625 -1.921875q-1.734375 -1.921875 -1.734375 -5.3125l0 -0.234375q0 -3.265625 1.734375 -5.203125q1.734375 -1.9375 4.75 -1.9375q2.640625 0 4.234375 1.5q1.59375 1.5 1.625 4.0l-3.53125 0q-0.03125 -1.09375 -0.6875 -1.765625q-0.640625 -0.6875 -1.703125 -0.6875q-1.3125 0 -1.984375 0.953125q-0.671875 0.953125 -0.671875 3.109375l0 0.390625q0 2.171875 0.65625 3.125q0.671875 0.953125 2.015625 0.953125zm7.463318 -4.40625q0 -2.09375 0.796875 -3.734375q0.8125 -1.640625 2.328125 -2.53125q1.515625 -0.90625 3.53125 -0.90625q2.84375 0 4.640625 1.75q1.8125 1.734375 2.015625 4.734375l0.03125 0.96875q0 3.234375 -1.8125 5.203125q-1.8125 1.953125 -4.859375 1.953125q-3.046875 0 -4.859375 -1.953125q-1.8125 -1.953125 -1.8125 -5.3125l0 -0.171875zm3.765625 0.28125q0 2.0 0.75 3.0625q0.75 1.0625 2.15625 1.0625q1.375 0 2.140625 -1.046875q0.765625 -1.0625 0.765625 -3.359375q0 -1.96875 -0.765625 -3.046875q-0.765625 -1.078125 -2.15625 -1.078125q-1.390625 0 -2.140625 1.078125q-0.75 1.0625 -0.75 3.328125zm11.30661 -0.25q0 -3.296875 1.46875 -5.25q1.484375 -1.953125 4.046875 -1.953125q2.0625 0 3.40625 1.53125l0 -7.1875l3.765625 0l0 20.0l-3.390625 0l-0.1875 -1.5q-1.40625 1.765625 -3.609375 1.765625q-2.5 0 -4.0 -1.953125q-1.5 -1.96875 -1.5 -5.453125zm3.765625 0.265625q0 1.984375 0.6875 3.046875q0.6875 1.046875 2.0 1.046875q1.75 0 2.46875 -1.46875l0 -5.5625q-0.703125 -1.46875 -2.4375 -1.46875q-2.71875 0 -2.71875 4.40625zm18.317047 7.140625q-3.09375 0 -5.046875 -1.90625q-1.9375 -1.90625 -1.9375 -5.0625l0 -0.359375q0 -2.125 0.8125 -3.796875q0.828125 -1.671875 2.328125 -2.578125q1.5 -0.90625 3.4375 -0.90625q2.890625 0 4.546875 1.828125q1.65625 1.8125 1.65625 5.15625l0 1.546875l-8.96875 0q0.1875 1.375 1.09375 2.21875q0.921875 0.828125 2.328125 0.828125q2.171875 0 3.40625 -1.578125l1.84375 2.0625q-0.84375 1.203125 -2.296875 1.875q-1.4375 0.671875 -3.203125 0.671875zm-0.421875 -11.5625q-1.125 0 -1.828125 0.765625q-0.6875 0.75 -0.875 2.15625l5.21875 0l0 -0.3125q-0.015625 -1.25 -0.671875 -1.921875q-0.65625 -0.6875 -1.84375 -0.6875zm22.233978 6.59375l4.296875 -14.25l4.359375 0l-6.609375 18.953125l-4.0625153 0l-6.578125 -18.953125l4.328125 0l4.2656403 14.25zm16.089539 4.96875q-3.09375 0 -5.046875 -1.90625q-1.9375 -1.90625 -1.9375 -5.0625l0 -0.359375q0 -2.125 0.8125 -3.796875q0.828125 -1.671875 2.328125 -2.578125q1.5 -0.90625 3.4375 -0.90625q2.890625 0 4.546875 1.828125q1.65625 1.8125 1.65625 5.15625l0 1.546875l-8.96875 0q0.1875 1.375 1.09375 2.21875q0.921875 0.828125 2.328125 0.828125q2.171875 0 3.40625 -1.578125l1.84375 2.0625q-0.84375 1.203125 -2.296875 1.875q-1.4375 0.671875 -3.203125 0.671875zm-0.421875 -11.5625q-1.125 0 -1.828125 0.765625q-0.6875 0.75 -0.875 2.15625l5.21875 0l0 -0.3125q-0.015625 -1.25 -0.671875 -1.921875q-0.65625 -0.6875 -1.84375 -0.6875zm16.267792 0.734375q-0.765625 -0.09375 -1.359375 -0.09375q-2.125 0 -2.796875 1.4375l0 9.21875l-3.765625 0l0 -14.078125l3.5625 0l0.109375 1.671875q1.125 -1.9375 3.125 -1.9375q0.625 0 1.171875 0.171875l-0.046875 3.609375zm5.7852783 10.5625l-3.78125 0l0 -14.078125l3.78125 0l0 14.078125zm-4.0 -17.734375q0 -0.84375 0.5625 -1.390625q0.5625 -0.546875 1.546875 -0.546875q0.953125 0 1.53125 0.546875q0.578125 0.546875 0.578125 1.390625q0 0.859375 -0.578125 1.40625q-0.578125 0.546875 -1.53125 0.546875q-0.953125 0 -1.53125 -0.546875q-0.578125 -0.546875 -0.578125 -1.40625zm8.005035 17.734375l0 -11.328125l-2.09375 0l0 -2.75l2.09375 0l0 -0.65625q0.015625 -2.65625 1.625 -4.09375q1.609375 -1.4375 4.546875 -1.4375q1.75 0 4.265625 0.765625l-0.546875 3.109375q-1.28125 -0.375 -1.984375 -0.484375q-0.703125 -0.109375 -1.5 -0.109375q-2.640625 0 -2.640625 2.328125l0 0.578125l2.78125 0l0 2.75l-2.78125 0l0 11.328125l-3.765625 0zm12.1875 0l-3.765625 0l0 -14.078125l3.765625 0l0 14.078125zm8.967621 -2.765625q1.046875 0 1.6875 -0.578125q0.65625 -0.578125 0.6875 -1.53125l3.53125 0q-0.015625 1.4375 -0.78125 2.640625q-0.765625 1.1875 -2.109375 1.84375q-1.328125 0.65625 -2.953125 0.65625q-3.015625 0 -4.765625 -1.921875q-1.734375 -1.921875 -1.734375 -5.3125l0 -0.234375q0 -3.265625 1.734375 -5.203125q1.734375 -1.9375 4.75 -1.9375q2.640625 0 4.234375 1.5q1.59375 1.5 1.625 4.0l-3.53125 0q-0.03125 -1.09375 -0.6875 -1.765625q-0.640625 -0.6875 -1.703125 -0.6875q-1.3125 0 -1.984375 0.953125q-0.671875 0.953125 -0.671875 3.109375l0 0.390625q0 2.171875 0.65625 3.125q0.671875 0.953125 2.015625 0.953125zm16.213318 2.765625q-0.265625 -0.5 -0.375 -1.265625q-1.375 1.53125 -3.5625 1.53125q-2.0625 0 -3.421875 -1.203125q-1.359375 -1.203125 -1.359375 -3.015625q0 -2.25 1.65625 -3.4375q1.65625 -1.203125 4.796875 -1.21875l1.734375 0l0 -0.796875q0 -0.984375 -0.515625 -1.5625q-0.5 -0.59375 -1.578125 -0.59375q-0.9375 0 -1.484375 0.46875q-0.546875 0.453125 -0.546875 1.234375l-3.75 0q0 -1.21875 0.75 -2.25q0.75 -1.046875 2.125 -1.640625q1.390625 -0.59375 3.109375 -0.59375q2.59375 0 4.125 1.3125q1.53125 1.296875 1.53125 3.671875l0 6.109375q0.015625 2.0 0.5625 3.03125l0 0.21875l-3.796875 0zm-3.109375 -2.609375q0.828125 0 1.53125 -0.375q0.703125 -0.375 1.046875 -1.0l0 -2.421875l-1.40625 0q-2.828125 0 -3.015625 1.953125l-0.015625 0.21875q0 0.703125 0.5 1.171875q0.5 0.453125 1.359375 0.453125zm13.744415 -14.9375l0 3.46875l2.40625 0l0 2.75l-2.40625 0l0 7.03125q0 0.78125 0.296875 1.125q0.296875 0.328125 1.140625 0.328125q0.625 0 1.109375 -0.078125l0 2.84375q-1.109375 0.34375 -2.28125 0.34375q-3.953125 0 -4.03125 -4.0l0 -7.59375l-2.0625 0l0 -2.75l2.0625 0l0 -3.46875l3.765625 0zm8.475647 17.546875l-3.78125 0l0 -14.078125l3.78125 0l0 14.078125zm-4.0 -17.734375q0 -0.84375 0.5625 -1.390625q0.5625 -0.546875 1.546875 -0.546875q0.953125 0 1.53125 0.546875q0.578125 0.546875 0.578125 1.390625q0 0.859375 -0.578125 1.40625q-0.578125 0.546875 -1.53125 0.546875q-0.953125 0 -1.53125 -0.546875q-0.578125 -0.546875 -0.578125 -1.40625zm6.505066 10.5625q0 -2.09375 0.796875 -3.734375q0.8125 -1.640625 2.328125 -2.53125q1.515625 -0.90625 3.53125 -0.90625q2.84375 0 4.640625 1.75q1.8125 1.734375 2.015625 4.734375l0.03125 0.96875q0 3.234375 -1.8125 5.203125q-1.8125 1.953125 -4.859375 1.953125q-3.046875 0 -4.859375 -1.953125q-1.8125 -1.953125 -1.8125 -5.3125l0 -0.171875zm3.765625 0.28125q0 2.0 0.75 3.0625q0.75 1.0625 2.15625 1.0625q1.375 0 2.140625 -1.046875q0.765625 -1.0625 0.765625 -3.359375q0 -1.96875 -0.765625 -3.046875q-0.765625 -1.078125 -2.15625 -1.078125q-1.390625 0 -2.140625 1.078125q-0.75 1.0625 -0.75 3.328125zm15.353455 -7.1875l0.125 1.625q1.5 -1.890625 4.046875 -1.890625q2.234375 0 3.328125 1.3125q1.09375 1.3125 1.109375 3.9375l0 9.09375l-3.75 0l0 -9.0q0 -1.203125 -0.53125 -1.734375q-0.515625 -0.546875 -1.71875 -0.546875q-1.59375 0 -2.390625 1.34375l0 9.9375l-3.765625 0l0 -14.078125l3.546875 0z" fill-rule="nonzero"/><path fill="#000000" fill-opacity="0.0" d="m399.65353 33.070866l160.6929 0l0 72.755905l-160.6929 0z" fill-rule="evenodd"/><path fill="#000000" d="m455.28748 53.69899l6.84375 0l0 22.96875q0 3.15625 -1.40625 5.59375q-1.40625 2.421875 -3.953125 3.75q-2.546875 1.3125 -5.765625 1.3125q-5.265625 0 -8.203125 -2.671875q-2.9375 -2.671875 -2.9375 -7.578125l6.890625 0q0 2.4375 1.015625 3.609375q1.03125 1.15625 3.234375 1.15625q1.96875 0 3.125 -1.34375q1.15625 -1.34375 1.15625 -3.828125l0 -22.96875zm24.96814 21.03125l-5.4375 0l0 12.140625l-6.828125 0l0 -33.171875l12.3125 0q5.875 0 9.0625 2.625q3.203125 2.609375 3.203125 7.40625q0 3.390625 -1.46875 5.65625q-1.46875 2.265625 -4.453125 3.609375l7.171875 13.5625l0 0.3125l-7.34375 0l-6.21875 -12.140625zm-5.4375 -5.53125l5.515625 0q2.578125 0 3.984375 -1.3125q1.40625 -1.3125 1.40625 -3.609375q0 -2.359375 -1.328125 -3.703125q-1.328125 -1.34375 -4.09375 -1.34375l-5.484375 0l0 9.96875zm42.90027 3.296875l-13.125 0l0 8.890625l15.40625 0l0 5.484375l-22.234375 0l0 -33.171875l22.1875 0l0 5.53125l-15.359375 0l0 7.90625l13.125 0l0 5.359375z" fill-rule="nonzero"/><path fill="#ffe599" d="m523.4147 133.67494l0 0c0 -10.961845 8.886353 -19.848167 19.848206 -19.848167l316.46112 0c5.264099 0 10.312561 2.0911407 14.03479 5.8133926c3.722229 3.722252 5.8134155 8.770706 5.8134155 14.034775l0 79.390274c0 10.961838 -8.886353 19.848175 -19.848206 19.848175l-316.46112 0c-10.961853 0 -19.848206 -8.886337 -19.848206 -19.848175z" fill-rule="evenodd"/><path stroke="#ffe599" stroke-width="1.0" stroke-linejoin="round" stroke-linecap="butt" d="m523.4147 133.67494l0 0c0 -10.961845 8.886353 -19.848167 19.848206 -19.848167l316.46112 0c5.264099 0 10.312561 2.0911407 14.03479 5.8133926c3.722229 3.722252 5.8134155 8.770706 5.8134155 14.034775l0 79.390274c0 10.961838 -8.886353 19.848175 -19.848206 19.848175l-316.46112 0c-10.961853 0 -19.848206 -8.886337 -19.848206 -19.848175z" fill-rule="evenodd"/><path fill="#000000" fill-opacity="0.0" d="m555.2808 123.62992l284.378 0l0 39.874016l-284.378 0z" fill-rule="evenodd"/><path fill="#000000" d="m586.2593 134.2138l3.90625 0l0 13.125q0 1.8125 -0.796875 3.203125q-0.796875 1.375 -2.265625 2.140625q-1.453125 0.75 -3.28125 0.75q-3.015625 0 -4.703125 -1.53125q-1.671875 -1.53125 -1.671875 -4.328125l3.9375 0q0 1.390625 0.578125 2.0625q0.59375 0.65625 1.859375 0.65625q1.109375 0 1.765625 -0.765625q0.671875 -0.765625 0.671875 -2.1875l0 -13.125zm15.171265 18.953125q-0.265625 -0.5 -0.375 -1.265625q-1.375 1.53125 -3.5625 1.53125q-2.0625 0 -3.421875 -1.203125q-1.359375 -1.203125 -1.359375 -3.015625q0 -2.25 1.65625 -3.4375q1.65625 -1.203125 4.796875 -1.21875l1.734375 0l0 -0.796875q0 -0.984375 -0.515625 -1.5625q-0.5 -0.59375 -1.578125 -0.59375q-0.9375 0 -1.484375 0.46875q-0.546875 0.453125 -0.546875 1.234375l-3.75 0q0 -1.21875 0.75 -2.25q0.75 -1.046875 2.125 -1.640625q1.390625 -0.59375 3.109375 -0.59375q2.59375 0 4.125 1.3125q1.53125 1.296875 1.53125 3.671875l0 6.109375q0.015625 2.0 0.5625 3.03125l0 0.21875l-3.796875 0zm-3.109375 -2.609375q0.828125 0 1.53125 -0.375q0.703125 -0.375 1.046875 -1.0l0 -2.421875l-1.40625 0q-2.828125 0 -3.015625 1.953125l-0.015625 0.21875q0 0.703125 0.5 1.171875q0.5 0.453125 1.359375 0.453125zm14.314697 -1.984375l2.609375 -9.484375l3.9375 0l-4.75 14.078125l-3.59375 0l-4.75 -14.078125l3.921875 0l2.625 9.484375zm16.166626 4.59375q-0.265625 -0.5 -0.375 -1.265625q-1.375 1.53125 -3.5625 1.53125q-2.0625 0 -3.421875 -1.203125q-1.359375 -1.203125 -1.359375 -3.015625q0 -2.25 1.65625 -3.4375q1.65625 -1.203125 4.796875 -1.21875l1.734375 0l0 -0.796875q0 -0.984375 -0.515625 -1.5625q-0.5 -0.59375 -1.578125 -0.59375q-0.9375 0 -1.484375 0.46875q-0.546875 0.453125 -0.546875 1.234375l-3.75 0q0 -1.21875 0.75 -2.25q0.75 -1.046875 2.125 -1.640625q1.390625 -0.59375 3.109375 -0.59375q2.59375 0 4.125 1.3125q1.53125 1.296875 1.53125 3.671875l0 6.109375q0.015625 2.0 0.5625 3.03125l0 0.21875l-3.796875 0zm-3.109375 -2.609375q0.828125 0 1.53125 -0.375q0.703125 -0.375 1.046875 -1.0l0 -2.421875l-1.40625 0q-2.828125 0 -3.015625 1.953125l-0.015625 0.21875q0 0.703125 0.5 1.171875q0.5 0.453125 1.359375 0.453125zm30.991821 -3.703125q-0.21875 3.0625 -2.25 4.828125q-2.03125 1.75 -5.375 1.75q-3.640625 0 -5.734375 -2.453125q-2.078125 -2.453125 -2.078125 -6.734375l0 -1.171875q0 -2.734375 0.953125 -4.8125q0.96875 -2.078125 2.75 -3.1875q1.796875 -1.125 4.171875 -1.125q3.28125 0 5.28125 1.765625q2.0 1.75 2.3125 4.9375l-3.90625 0q-0.140625 -1.84375 -1.015625 -2.671875q-0.875 -0.828125 -2.671875 -0.828125q-1.953125 0 -2.921875 1.40625q-0.96875 1.390625 -1.0 4.34375l0 1.421875q0 3.078125 0.921875 4.5q0.9375 1.421875 2.9375 1.421875q1.8125 0 2.703125 -0.828125q0.890625 -0.828125 1.03125 -2.5625l3.890625 0zm6.300476 6.3125l-3.78125 0l0 -20.0l3.78125 0l0 20.0zm11.255066 0q-0.265625 -0.5 -0.375 -1.265625q-1.375 1.53125 -3.5625 1.53125q-2.0625 0 -3.421875 -1.203125q-1.359375 -1.203125 -1.359375 -3.015625q0 -2.25 1.65625 -3.4375q1.65625 -1.203125 4.796875 -1.21875l1.734375 0l0 -0.796875q0 -0.984375 -0.515625 -1.5625q-0.5 -0.59375 -1.578125 -0.59375q-0.9375 0 -1.484375 0.46875q-0.546875 0.453125 -0.546875 1.234375l-3.75 0q0 -1.21875 0.75 -2.25q0.75 -1.046875 2.125 -1.640625q1.390625 -0.59375 3.109375 -0.59375q2.59375 0 4.125 1.3125q1.53125 1.296875 1.53125 3.671875l0 6.109375q0.015625 2.0 0.5625 3.03125l0 0.21875l-3.796875 0zm-3.109375 -2.609375q0.828125 0 1.53125 -0.375q0.703125 -0.375 1.046875 -1.0l0 -2.421875l-1.40625 0q-2.828125 0 -3.015625 1.953125l-0.015625 0.21875q0 0.703125 0.5 1.171875q0.5 0.453125 1.359375 0.453125zm16.869385 -1.28125q0 -0.6875 -0.6875 -1.078125q-0.6875 -0.40625 -2.1875 -0.71875q-5.03125 -1.046875 -5.03125 -4.265625q0 -1.875 1.546875 -3.125q1.5625 -1.265625 4.078125 -1.265625q2.671875 0 4.28125 1.265625q1.609375 1.265625 1.609375 3.28125l-3.765625 0q0 -0.8125 -0.515625 -1.328125q-0.515625 -0.53125 -1.625 -0.53125q-0.953125 0 -1.46875 0.4375q-0.515625 0.421875 -0.515625 1.078125q0 0.625 0.578125 1.015625q0.59375 0.375 2.0 0.65625q1.40625 0.28125 2.375 0.640625q2.984375 1.09375 2.984375 3.78125q0 1.921875 -1.65625 3.125q-1.65625 1.1875 -4.265625 1.1875q-1.78125 0 -3.15625 -0.625q-1.359375 -0.640625 -2.140625 -1.734375q-0.78125 -1.109375 -0.78125 -2.390625l3.5625 0q0.046875 1.015625 0.734375 1.546875q0.703125 0.53125 1.859375 0.53125q1.078125 0 1.625 -0.40625q0.5625 -0.421875 0.5625 -1.078125zm13.705627 0q0 -0.6875 -0.6875 -1.078125q-0.6875 -0.40625 -2.1875 -0.71875q-5.03125 -1.046875 -5.03125 -4.265625q0 -1.875 1.546875 -3.125q1.5625 -1.265625 4.078125 -1.265625q2.671875 0 4.28125 1.265625q1.609375 1.265625 1.609375 3.28125l-3.765625 0q0 -0.8125 -0.515625 -1.328125q-0.515625 -0.53125 -1.625 -0.53125q-0.953125 0 -1.46875 0.4375q-0.515625 0.421875 -0.515625 1.078125q0 0.625 0.578125 1.015625q0.59375 0.375 2.0 0.65625q1.40625 0.28125 2.375 0.640625q2.984375 1.09375 2.984375 3.78125q0 1.921875 -1.65625 3.125q-1.65625 1.1875 -4.265625 1.1875q-1.78125 0 -3.15625 -0.625q-1.359375 -0.640625 -2.140625 -1.734375q-0.78125 -1.109375 -0.78125 -2.390625l3.5625 0q0.046875 1.015625 0.734375 1.546875q0.703125 0.53125 1.859375 0.53125q1.078125 0 1.625 -0.40625q0.5625 -0.421875 0.5625 -1.078125zm16.859192 0.75l8.296875 0l0 3.140625l-12.203125 0l0 -18.953125l3.90625 0l0 15.8125zm14.262634 3.140625l-3.78125 0l0 -14.078125l3.78125 0l0 14.078125zm-4.0 -17.734375q0 -0.84375 0.5625 -1.390625q0.5625 -0.546875 1.546875 -0.546875q0.953125 0 1.53125 0.546875q0.578125 0.546875 0.578125 1.390625q0 0.859375 -0.578125 1.40625q-0.578125 0.546875 -1.53125 0.546875q-0.953125 0 -1.53125 -0.546875q-0.578125 -0.546875 -0.578125 -1.40625zm19.786255 10.828125q0 3.375 -1.453125 5.28125q-1.4375 1.890625 -4.03125 1.890625q-2.296875 0 -3.65625 -1.765625l-0.171875 1.5l-3.390625 0l0 -20.0l3.765625 0l0 7.171875q1.3125 -1.515625 3.421875 -1.515625q2.578125 0 4.046875 1.890625q1.46875 1.890625 1.46875 5.328125l0 0.21875zm-3.765625 -0.28125q0 -2.125 -0.6875 -3.109375q-0.671875 -0.984375 -2.015625 -0.984375q-1.78125 0 -2.46875 1.46875l0 5.5625q0.6875 1.484375 2.5 1.484375q1.828125 0 2.390625 -1.796875q0.28125 -0.859375 0.28125 -2.625zm13.991577 -3.375q-0.765625 -0.09375 -1.359375 -0.09375q-2.125 0 -2.796875 1.4375l0 9.21875l-3.765625 0l0 -14.078125l3.5625 0l0.109375 1.671875q1.125 -1.9375 3.125 -1.9375q0.625 0 1.171875 0.171875l-0.046875 3.609375zm9.582092 10.5625q-0.265625 -0.5 -0.375 -1.265625q-1.375 1.53125 -3.5625 1.53125q-2.0625 0 -3.421875 -1.203125q-1.359375 -1.203125 -1.359375 -3.015625q0 -2.25 1.65625 -3.4375q1.65625 -1.203125 4.796875 -1.21875l1.734375 0l0 -0.796875q0 -0.984375 -0.515625 -1.5625q-0.5 -0.59375 -1.578125 -0.59375q-0.9375 0 -1.484375 0.46875q-0.546875 0.453125 -0.546875 1.234375l-3.75 0q0 -1.21875 0.75 -2.25q0.75 -1.046875 2.125 -1.640625q1.390625 -0.59375 3.109375 -0.59375q2.59375 0 4.125 1.3125q1.53125 1.296875 1.53125 3.671875l0 6.109375q0.015625 2.0 0.5625 3.03125l0 0.21875l-3.796875 0zm-3.109375 -2.609375q0.828125 0 1.53125 -0.375q0.703125 -0.375 1.046875 -1.0l0 -2.421875l-1.40625 0q-2.828125 0 -3.015625 1.953125l-0.015625 0.21875q0 0.703125 0.5 1.171875q0.5 0.453125 1.359375 0.453125zm17.150696 -7.953125q-0.765625 -0.09375 -1.359375 -0.09375q-2.125 0 -2.796875 1.4375l0 9.21875l-3.765625 0l0 -14.078125l3.5625 0l0.109375 1.671875q1.125 -1.9375 3.125 -1.9375q0.625 0 1.171875 0.171875l-0.046875 3.609375zm5.7852783 10.5625l-3.78125 0l0 -14.078125l3.78125 0l0 14.078125zm-4.0 -17.734375q0 -0.84375 0.5625 -1.390625q0.5625 -0.546875 1.546875 -0.546875q0.953125 0 1.53125 0.546875q0.578125 0.546875 0.578125 1.390625q0 0.859375 -0.578125 1.40625q-0.578125 0.546875 -1.53125 0.546875q-0.953125 0 -1.53125 -0.546875q-0.578125 -0.546875 -0.578125 -1.40625zm13.567505 18.0q-3.09375 0 -5.046875 -1.90625q-1.9375 -1.90625 -1.9375 -5.0625l0 -0.359375q0 -2.125 0.8125 -3.796875q0.828125 -1.671875 2.328125 -2.578125q1.5 -0.90625 3.4375 -0.90625q2.890625 0 4.546875 1.828125q1.65625 1.8125 1.65625 5.15625l0 1.546875l-8.96875 0q0.1875 1.375 1.09375 2.21875q0.921875 0.828125 2.328125 0.828125q2.171875 0 3.40625 -1.578125l1.84375 2.0625q-0.84375 1.203125 -2.296875 1.875q-1.4375 0.671875 -3.203125 0.671875zm-0.421875 -11.5625q-1.125 0 -1.828125 0.765625q-0.6875 0.75 -0.875 2.15625l5.21875 0l0 -0.3125q-0.015625 -1.25 -0.671875 -1.921875q-0.65625 -0.6875 -1.84375 -0.6875zm15.986572 7.40625q0 -0.6875 -0.6875 -1.078125q-0.6875 -0.40625 -2.1875 -0.71875q-5.03125 -1.046875 -5.03125 -4.265625q0 -1.875 1.546875 -3.125q1.5625 -1.265625 4.078125 -1.265625q2.671875 0 4.28125 1.265625q1.609375 1.265625 1.609375 3.28125l-3.765625 0q0 -0.8125 -0.515625 -1.328125q-0.515625 -0.53125 -1.625 -0.53125q-0.953125 0 -1.46875 0.4375q-0.515625 0.421875 -0.515625 1.078125q0 0.625 0.578125 1.015625q0.59375 0.375 2.0 0.65625q1.40625 0.28125 2.375 0.640625q2.984375 1.09375 2.984375 3.78125q0 1.921875 -1.65625 3.125q-1.65625 1.1875 -4.265625 1.1875q-1.78125 0 -3.15625 -0.625q-1.359375 -0.640625 -2.140625 -1.734375q-0.78125 -1.109375 -0.78125 -2.390625l3.5625 0q0.046875 1.015625 0.734375 1.546875q0.703125 0.53125 1.859375 0.53125q1.078125 0 1.625 -0.40625q0.5625 -0.421875 0.5625 -1.078125z" fill-rule="nonzero"/><path fill="#ffffff" d="m536.4803 180.48836l0 0c0 -4.4908447 3.640564 -8.131409 8.131409 -8.131409l61.06006 0c2.1565552 0 4.2248535 0.8567047 5.749756 2.3816376c1.5249634 1.5249329 2.3816528 3.5931854 2.3816528 5.749771l0 32.524597c0 4.4908447 -3.640564 8.131409 -8.131409 8.131409l-61.06006 0c-4.4908447 0 -8.131409 -3.640564 -8.131409 -8.131409z" fill-rule="evenodd"/><path stroke="#ffffff" stroke-width="1.0" stroke-linejoin="round" stroke-linecap="butt" d="m536.4803 180.48836l0 0c0 -4.4908447 3.640564 -8.131409 8.131409 -8.131409l61.06006 0c2.1565552 0 4.2248535 0.8567047 5.749756 2.3816376c1.5249634 1.5249329 2.3816528 3.5931854 2.3816528 5.749771l0 32.524597c0 4.4908447 -3.640564 8.131409 -8.131409 8.131409l-61.06006 0c-4.4908447 0 -8.131409 -3.640564 -8.131409 -8.131409z" fill-rule="evenodd"/><path fill="#000000" d="m561.2744 201.69815l-5.8125 0l-1.109375 3.3125l-3.53125 0l6.0 -16.109375l3.078125 0l6.015625 16.109375l-3.515625 0l-1.125 -3.3125zm-4.921875 -2.6875l4.03125 0l-2.03125 -6.03125l-2.0 6.03125zm23.187683 1.359375l2.171875 -11.46875l3.296875 0l-3.5625 16.109375l-3.34375 0l-2.625 -10.78125l-2.625 10.78125l-3.34375 0l-3.5625 -16.109375l3.296875 0l2.1875 11.4375l2.65625 -11.4375l2.8125 0l2.640625 11.46875zm19.546204 -8.78125l-4.9375 0l0 13.421875l-3.3125 0l0 -13.421875l-4.875 0l0 -2.6875l13.125 0l0 2.6875z" fill-rule="nonzero"/><path fill="#ffffff" d="m620.7139 180.48836l0 0c0 -4.4908447 3.640503 -8.131409 8.131409 -8.131409l61.059998 0c2.1566162 0 4.2248535 0.8567047 5.749756 2.3816376c1.5249634 1.5249329 2.3816528 3.5931854 2.3816528 5.749771l0 32.524597c0 4.4908447 -3.640564 8.131409 -8.131409 8.131409l-61.059998 0c-4.490906 0 -8.131409 -3.640564 -8.131409 -8.131409z" fill-rule="evenodd"/><path stroke="#ffffff" stroke-width="1.0" stroke-linejoin="round" stroke-linecap="butt" d="m620.7139 180.48836l0 0c0 -4.4908447 3.640503 -8.131409 8.131409 -8.131409l61.059998 0c2.1566162 0 4.2248535 0.8567047 5.749756 2.3816376c1.5249634 1.5249329 2.3816528 3.5931854 2.3816528 5.749771l0 32.524597c0 4.4908447 -3.640564 8.131409 -8.131409 8.131409l-61.059998 0c-4.490906 0 -8.131409 -3.640564 -8.131409 -8.131409z" fill-rule="evenodd"/><path fill="#000000" d="m651.30316 201.69815q0 -0.578125 -0.578125 -0.90625q-0.578125 -0.34375 -1.859375 -0.609375q-4.265625 -0.90625 -4.265625 -3.640625q0 -1.59375 1.3125 -2.65625q1.328125 -1.0625 3.46875 -1.0625q2.265625 0 3.625 1.078125q1.375 1.0625 1.375 2.78125l-3.1875 0q0 -0.6875 -0.453125 -1.125q-0.4375 -0.453125 -1.375 -0.453125q-0.8125 0 -1.25 0.359375q-0.4375 0.359375 -0.4375 0.921875q0 0.53125 0.5 0.859375q0.5 0.328125 1.6875 0.578125q1.203125 0.234375 2.015625 0.53125q2.53125 0.921875 2.53125 3.21875q0 1.640625 -1.40625 2.65625q-1.390625 1.0 -3.625 1.0q-1.5 0 -2.671875 -0.53125q-1.15625 -0.546875 -1.828125 -1.46875q-0.65625 -0.9375 -0.65625 -2.03125l3.03125 0q0.03125 0.859375 0.625 1.3125q0.59375 0.453125 1.578125 0.453125q0.90625 0 1.375 -0.34375q0.46875 -0.359375 0.46875 -0.921875zm10.680176 3.53125q-2.625 0 -4.28125 -1.609375q-1.65625 -1.625 -1.65625 -4.3125l0 -0.296875q0 -1.8125 0.6875 -3.234375q0.703125 -1.421875 1.984375 -2.1875q1.28125 -0.765625 2.921875 -0.765625q2.453125 0 3.859375 1.546875q1.40625 1.546875 1.40625 4.390625l0 1.3125l-7.625 0q0.15625 1.171875 0.9375 1.875q0.78125 0.703125 1.984375 0.703125q1.84375 0 2.875 -1.328125l1.578125 1.75q-0.71875 1.015625 -1.953125 1.59375q-1.21875 0.5625 -2.71875 0.5625zm-0.359375 -9.828125q-0.953125 0 -1.546875 0.65625q-0.59375 0.640625 -0.75 1.828125l4.4375 0l0 -0.25q-0.015625 -1.0625 -0.578125 -1.640625q-0.546875 -0.59375 -1.5625 -0.59375zm10.933838 -5.296875l0 2.9375l2.046875 0l0 2.34375l-2.046875 0l0 5.96875q0 0.671875 0.25 0.96875q0.25 0.28125 0.96875 0.28125q0.53125 0 0.9375 -0.078125l0 2.421875q-0.9375 0.28125 -1.9375 0.28125q-3.359375 0 -3.421875 -3.390625l0 -6.453125l-1.75 0l0 -2.34375l1.75 0l0 -2.9375l3.203125 0z" fill-rule="nonzero"/><path fill="#ffffff" d="m704.9475 180.48836l0 0c0 -4.4908447 3.640564 -8.131409 8.131409 -8.131409l61.059998 0c2.1566162 0 4.2248535 0.8567047 5.749817 2.3816376c1.5249023 1.5249329 2.3815918 3.5931854 2.3815918 5.749771l0 32.524597c0 4.4908447 -3.640564 8.131409 -8.131409 8.131409l-61.059998 0c-4.4908447 0 -8.131409 -3.640564 -8.131409 -8.131409z" fill-rule="evenodd"/><path stroke="#ffffff" stroke-width="1.0" stroke-linejoin="round" stroke-linecap="butt" d="m704.9475 180.48836l0 0c0 -4.4908447 3.640564 -8.131409 8.131409 -8.131409l61.059998 0c2.1566162 0 4.2248535 0.8567047 5.749817 2.3816376c1.5249023 1.5249329 2.3815918 3.5931854 2.3815918 5.749771l0 32.524597c0 4.4908447 -3.640564 8.131409 -8.131409 8.131409l-61.059998 0c-4.4908447 0 -8.131409 -3.640564 -8.131409 -8.131409z" fill-rule="evenodd"/><path fill="#000000" d="m735.8337 205.01065l-3.21875 0l0 -17.0l3.21875 0l0 17.0zm6.007019 0l-3.21875 0l0 -11.96875l3.21875 0l0 11.96875zm-3.40625 -15.0625q0 -0.71875 0.484375 -1.1875q0.484375 -0.46875 1.3125 -0.46875q0.8125 0 1.296875 0.46875q0.5 0.46875 0.5 1.1875q0 0.71875 -0.5 1.1875q-0.484375 0.46875 -1.296875 0.46875q-0.8125 0 -1.3125 -0.46875q-0.484375 -0.46875 -0.484375 -1.1875zm16.819519 9.1875q0 2.875 -1.234375 4.484375q-1.21875 1.609375 -3.421875 1.609375q-1.953125 0 -3.109375 -1.484375l-0.140625 1.265625l-2.875 0l0 -17.0l3.1875 0l0 6.109375q1.109375 -1.296875 2.90625 -1.296875q2.203125 0 3.4375 1.609375q1.25 1.609375 1.25 4.53125l0 0.171875zm-3.203125 -0.234375q0 -1.8125 -0.578125 -2.640625q-0.5625 -0.84375 -1.703125 -0.84375q-1.53125 0 -2.109375 1.25l0 4.71875q0.59375 1.265625 2.125 1.265625q1.546875 0 2.03125 -1.53125q0.234375 -0.71875 0.234375 -2.21875z" fill-rule="nonzero"/><path fill="#ffffff" d="m789.1811 180.48836l0 0c0 -4.4908447 3.640564 -8.131409 8.131409 -8.131409l61.06006 0c2.1565552 0 4.2247925 0.8567047 5.749756 2.3816376c1.5249023 1.5249329 2.3816528 3.5931854 2.3816528 5.749771l0 32.524597c0 4.4908447 -3.640564 8.131409 -8.131409 8.131409l-61.06006 0c-4.4908447 0 -8.131409 -3.640564 -8.131409 -8.131409z" fill-rule="evenodd"/><path stroke="#ffffff" stroke-width="1.0" stroke-linejoin="round" stroke-linecap="butt" d="m789.1811 180.48836l0 0c0 -4.4908447 3.640564 -8.131409 8.131409 -8.131409l61.06006 0c2.1565552 0 4.2247925 0.8567047 5.749756 2.3816376c1.5249023 1.5249329 2.3816528 3.5931854 2.3816528 5.749771l0 32.524597c0 4.4908447 -3.640564 8.131409 -8.131409 8.131409l-61.06006 0c-4.4908447 0 -8.131409 -3.640564 -8.131409 -8.131409z" fill-rule="evenodd"/><path fill="#000000" d="m818.7186 205.2294q-2.625 0 -4.28125 -1.609375q-1.65625 -1.625 -1.65625 -4.3125l0 -0.296875q0 -1.8125 0.6875 -3.234375q0.703125 -1.421875 1.984375 -2.1875q1.28125 -0.765625 2.921875 -0.765625q2.453125 0 3.859375 1.546875q1.40625 1.546875 1.40625 4.390625l0 1.3125l-7.625 0q0.15625 1.171875 0.9375 1.875q0.78125 0.703125 1.984375 0.703125q1.84375 0 2.875 -1.328125l1.578125 1.75q-0.71875 1.015625 -1.953125 1.59375q-1.21875 0.5625 -2.71875 0.5625zm-0.359375 -9.828125q-0.953125 0 -1.546875 0.65625q-0.59375 0.640625 -0.75 1.828125l4.4375 0l0 -0.25q-0.015625 -1.0625 -0.578125 -1.640625q-0.546875 -0.59375 -1.5625 -0.59375zm10.933838 -5.296875l0 2.9375l2.046875 0l0 2.34375l-2.046875 0l0 5.96875q0 0.671875 0.25 0.96875q0.25 0.28125 0.96875 0.28125q0.53125 0 0.9375 -0.078125l0 2.421875q-0.9375 0.28125 -1.9375 0.28125q-3.359375 0 -3.421875 -3.390625l0 -6.453125l-1.75 0l0 -2.34375l1.75 0l0 -2.9375l3.203125 0zm8.795959 12.546875q0.890625 0 1.4375 -0.484375q0.5625 -0.484375 0.578125 -1.296875l3.0 0q-0.015625 1.21875 -0.671875 2.234375q-0.640625 1.015625 -1.78125 1.578125q-1.125 0.546875 -2.5 0.546875q-2.578125 0 -4.0625 -1.625q-1.46875 -1.640625 -1.46875 -4.515625l0 -0.203125q0 -2.765625 1.46875 -4.40625q1.46875 -1.65625 4.03125 -1.65625q2.25 0 3.609375 1.28125q1.359375 1.265625 1.375 3.390625l-3.0 0q-0.015625 -0.921875 -0.578125 -1.5q-0.546875 -0.59375 -1.453125 -0.59375q-1.125 0 -1.703125 0.828125q-0.5625 0.8125 -0.5625 2.625l0 0.34375q0 1.84375 0.5625 2.65625q0.578125 0.796875 1.71875 0.796875z" fill-rule="nonzero"/><path fill="#ffe599" d="m124.86614 306.95087l0 0c0 -20.40741 16.543465 -36.950867 36.950874 -36.950867l636.36597 0c9.799988 0 19.198608 3.893036 26.128235 10.822662c6.9296265 6.9296265 10.822632 16.328217 10.822632 26.128204l0 147.79904c0 20.40741 -16.543457 36.950867 -36.950867 36.950867l-636.36597 0c-20.40741 0 -36.950874 -16.543457 -36.950874 -36.950867z" fill-rule="evenodd"/><path stroke="#ffe599" stroke-width="1.0" stroke-linejoin="round" stroke-linecap="butt" d="m124.86614 306.95087l0 0c0 -20.40741 16.543465 -36.950867 36.950874 -36.950867l636.36597 0c9.799988 0 19.198608 3.893036 26.128235 10.822662c6.9296265 6.9296265 10.822632 16.328217 10.822632 26.128204l0 147.79904c0 20.40741 -16.543457 36.950867 -36.950867 36.950867l-636.36597 0c-20.40741 0 -36.950874 -16.543457 -36.950874 -36.950867z" fill-rule="evenodd"/><path fill="#000000" fill-opacity="0.0" d="m399.65353 277.85828l160.6929 0l0 62.740143l-160.6929 0z" fill-rule="evenodd"/><path fill="#000000" d="m454.08487 296.16702l5.46875 0l0 18.359375q0 2.546875 -1.125 4.484375q-1.109375 1.9375 -3.15625 3.0q-2.03125 1.046875 -4.609375 1.046875q-4.203125 0 -6.5625 -2.140625q-2.34375 -2.140625 -2.34375 -6.0625l5.5 0q0 1.953125 0.8125 2.890625q0.828125 0.921875 2.59375 0.921875q1.5625 0 2.484375 -1.0625q0.9375 -1.078125 0.9375 -3.078125l0 -18.359375zm19.960632 19.953125l6.015625 -19.953125l6.09375 0l-9.25 26.53125l-5.703125 0l-9.203125 -26.53125l6.078125 0l5.96875 19.953125zm21.749207 -19.953125l6.8125 19.234375l6.78125 -19.234375l7.1874695 0l0 26.53125l-5.4843445 0l0 -7.25l0.546875 -12.53125l-7.171875 19.78125l-3.75 0l-7.140625 -19.75l0.546875 12.5l0 7.25l-5.46875 0l0 -26.53125l7.140625 0z" fill-rule="nonzero"/><path fill="#ffffff" d="m186.05905 354.9739l0 0c0 -4.4908447 3.6405487 -8.131378 8.131393 -8.131378l225.02855 0c2.1565857 0 4.224823 0.85668945 5.749756 2.3816223c1.5249329 1.5249329 2.3816528 3.5931702 2.3816528 5.749756l0 32.524628c0 4.4908447 -3.640564 8.131378 -8.131409 8.131378l-225.02855 0l0 0c-4.4908447 0 -8.131393 -3.6405334 -8.131393 -8.131378z" fill-rule="evenodd"/><path stroke="#ffffff" stroke-width="1.0" stroke-linejoin="round" stroke-linecap="butt" d="m186.05905 354.9739l0 0c0 -4.4908447 3.6405487 -8.131378 8.131393 -8.131378l225.02855 0c2.1565857 0 4.224823 0.85668945 5.749756 2.3816223c1.5249329 1.5249329 2.3816528 3.5931702 2.3816528 5.749756l0 32.524628c0 4.4908447 -3.640564 8.131378 -8.131409 8.131378l-225.02855 0l0 0c-4.4908447 0 -8.131393 -3.6405334 -8.131393 -8.131378z" fill-rule="evenodd"/><path fill="#000000" d="m229.10121 362.7137l3.515625 0l0 11.8125q0 1.625 -0.71875 2.875q-0.71875 1.25 -2.03125 1.9375q-1.3125 0.671875 -2.96875 0.671875q-2.703125 0 -4.21875 -1.375q-1.515625 -1.375 -1.515625 -3.90625l3.546875 0q0 1.265625 0.515625 1.859375q0.53125 0.59375 1.671875 0.59375q1.0 0 1.59375 -0.6875q0.609375 -0.6875 0.609375 -1.96875l0 -11.8125zm13.65625 17.0625q-0.234375 -0.453125 -0.34375 -1.140625q-1.234375 1.375 -3.203125 1.375q-1.859375 0 -3.09375 -1.078125q-1.21875 -1.078125 -1.21875 -2.71875q0 -2.015625 1.484375 -3.09375q1.5 -1.078125 4.328125 -1.09375l1.5625 0l0 -0.71875q0 -0.890625 -0.453125 -1.40625q-0.453125 -0.53125 -1.421875 -0.53125q-0.859375 0 -1.34375 0.40625q-0.484375 0.40625 -0.484375 1.125l-3.390625 0q0 -1.09375 0.671875 -2.03125q0.6875 -0.9375 1.921875 -1.46875q1.25 -0.546875 2.796875 -0.546875q2.34375 0 3.71875 1.1875q1.375 1.171875 1.375 3.3125l0 5.484375q0.015625 1.8125 0.515625 2.734375l0 0.203125l-3.421875 0zm-2.8125 -2.359375q0.75 0 1.375 -0.328125q0.640625 -0.34375 0.953125 -0.90625l0 -2.171875l-1.265625 0q-2.546875 0 -2.703125 1.75l-0.015625 0.203125q0 0.640625 0.4375 1.046875q0.453125 0.40625 1.21875 0.40625zm12.894531 -1.78125l2.359375 -8.546875l3.5312347 0l-4.2656097 12.6875l-3.234375 0l-4.28125 -12.6875l3.53125 0l2.359375 8.546875zm14.562485 4.140625q-0.234375 -0.453125 -0.34375 -1.140625q-1.234375 1.375 -3.203125 1.375q-1.859375 0 -3.09375 -1.078125q-1.21875 -1.078125 -1.21875 -2.71875q0 -2.015625 1.484375 -3.09375q1.5 -1.078125 4.328125 -1.09375l1.5625 0l0 -0.71875q0 -0.890625 -0.453125 -1.40625q-0.453125 -0.53125 -1.421875 -0.53125q-0.859375 0 -1.34375 0.40625q-0.484375 0.40625 -0.484375 1.125l-3.390625 0q0 -1.09375 0.671875 -2.03125q0.6875 -0.9375 1.921875 -1.46875q1.25 -0.546875 2.796875 -0.546875q2.34375 0 3.71875 1.1875q1.375 1.171875 1.375 3.3125l0 5.484375q0.015625 1.8125 0.515625 2.734375l0 0.203125l-3.421875 0zm-2.8125 -2.359375q0.75 0 1.375 -0.328125q0.640625 -0.34375 0.953125 -0.90625l0 -2.171875l-1.265625 0q-2.546875 0 -2.703125 1.75l-0.015625 0.203125q0 0.640625 0.4375 1.046875q0.453125 0.40625 1.21875 0.40625zm18.265625 2.359375l-3.515625 0l0 -17.0625l3.515625 0l0 17.0625zm6.1523438 -12.6875l0.109375 1.46875q1.359375 -1.703125 3.640625 -1.703125q2.015625 0 3.0 1.1875q0.984375 1.1875 1.0 3.546875l0 8.1875l-3.375 0l0 -8.109375q0 -1.078125 -0.46875 -1.5625q-0.46875 -0.484375 -1.5625 -0.484375q-1.4375 0 -2.140625 1.21875l0 8.9375l-3.390625 0l0 -12.6875l3.1875 0zm14.378906 -3.109375l0 3.109375l2.171875 0l0 2.484375l-2.171875 0l0 6.328125q0 0.703125 0.265625 1.015625q0.265625 0.296875 1.03125 0.296875q0.5625 0 1.0 -0.078125l0 2.5625q-1.0 0.3125 -2.046875 0.3125q-3.5625 0 -3.640625 -3.59375l0 -6.84375l-1.84375 0l0 -2.484375l1.84375 0l0 -3.109375l3.390625 0zm9.890625 16.03125q-2.796875 0 -4.546875 -1.703125q-1.75 -1.71875 -1.75 -4.5625l0 -0.328125q0 -1.921875 0.734375 -3.421875q0.75 -1.5 2.09375 -2.3125q1.359375 -0.828125 3.09375 -0.828125q2.59375 0 4.0937805 1.640625q1.5 1.640625 1.5 4.65625l0 1.390625l-8.0781555 0q0.15625 1.234375 0.984375 1.984375q0.828125 0.75 2.09375 0.75q1.953125 0 3.0625305 -1.421875l1.65625 1.875q-0.75 1.078125 -2.0625305 1.6875q-1.296875 0.59375 -2.875 0.59375zm-0.390625 -10.40625q-1.0 0 -1.640625 0.6875q-0.625 0.671875 -0.796875 1.9375l4.71875 0l0 -0.265625q-0.03125 -1.125 -0.625 -1.734375q-0.578125 -0.625 -1.65625 -0.625zm14.644562 0.671875q-0.6875 -0.09375 -1.21875 -0.09375q-1.921875 0 -2.515625 1.296875l0 8.296875l-3.390625 0l0 -12.6875l3.203125 0l0.09375 1.515625q1.015625 -1.75 2.828125 -1.75q0.5625 0 1.046875 0.15625l-0.046875 3.265625zm13.050781 3.28125q0 2.921875 -1.328125 4.6875q-1.328125 1.765625 -3.59375 1.765625q-1.921875 0 -3.109375 -1.34375l0 5.984375l-3.390625 0l0 -17.5625l3.140625 0l0.125 1.25q1.234375 -1.484375 3.203125 -1.484375q2.34375 0 3.640625 1.734375q1.3125 1.734375 1.3125 4.78125l0 0.1875zm-3.390625 -0.25q0 -1.765625 -0.625 -2.71875q-0.625 -0.96875 -1.828125 -0.96875q-1.59375 0 -2.1875 1.21875l0 5.1875q0.625 1.25 2.21875 1.25q2.421875 0 2.421875 -3.96875zm12.605469 -3.03125q-0.6875 -0.09375 -1.21875 -0.09375q-1.921875 0 -2.515625 1.296875l0 8.296875l-3.390625 0l0 -12.6875l3.203125 0l0.09375 1.515625q1.015625 -1.75 2.828125 -1.75q0.5625 0 1.046875 0.15625l-0.046875 3.265625zm7.25 9.734375q-2.796875 0 -4.546875 -1.703125q-1.75 -1.71875 -1.75 -4.5625l0 -0.328125q0 -1.921875 0.734375 -3.421875q0.75 -1.5 2.09375 -2.3125q1.359375 -0.828125 3.09375 -0.828125q2.59375 0 4.09375 1.640625q1.5 1.640625 1.5 4.65625l0 1.390625l-8.078125 0q0.15625 1.234375 0.984375 1.984375q0.828125 0.75 2.09375 0.75q1.953125 0 3.0625 -1.421875l1.65625 1.875q-0.75 1.078125 -2.0625 1.6875q-1.296875 0.59375 -2.875 0.59375zm-0.390625 -10.40625q-1.0 0 -1.640625 0.6875q-0.625 0.671875 -0.796875 1.9375l4.71875 0l0 -0.265625q-0.03125 -1.125 -0.625 -1.734375q-0.578125 -0.625 -1.65625 -0.625zm11.582031 -5.625l0 3.109375l2.171875 0l0 2.484375l-2.171875 0l0 6.328125q0 0.703125 0.265625 1.015625q0.265625 0.296875 1.03125 0.296875q0.5625 0 1.0 -0.078125l0 2.5625q-1.0 0.3125 -2.046875 0.3125q-3.5625 0 -3.640625 -3.59375l0 -6.84375l-1.84375 0l0 -2.484375l1.84375 0l0 -3.109375l3.390625 0zm9.890625 16.03125q-2.796875 0 -4.546875 -1.703125q-1.75 -1.71875 -1.75 -4.5625l0 -0.328125q0 -1.921875 0.734375 -3.421875q0.75 -1.5 2.09375 -2.3125q1.359375 -0.828125 3.09375 -0.828125q2.59375 0 4.09375 1.640625q1.5 1.640625 1.5 4.65625l0 1.390625l-8.078125 0q0.15625 1.234375 0.984375 1.984375q0.828125 0.75 2.09375 0.75q1.953125 0 3.0625 -1.421875l1.65625 1.875q-0.75 1.078125 -2.0625 1.6875q-1.296875 0.59375 -2.875 0.59375zm-0.390625 -10.40625q-1.0 0 -1.640625 0.6875q-0.625 0.671875 -0.796875 1.9375l4.71875 0l0 -0.265625q-0.03125 -1.125 -0.625 -1.734375q-0.578125 -0.625 -1.65625 -0.625zm14.644531 0.671875q-0.6875 -0.09375 -1.21875 -0.09375q-1.921875 0 -2.515625 1.296875l0 8.296875l-3.390625 0l0 -12.6875l3.203125 0l0.09375 1.515625q1.015625 -1.75 2.828125 -1.75q0.5625 0 1.046875 0.15625l-0.046875 3.265625z" fill-rule="nonzero"/><path fill="#ffffff" d="m186.05905 424.5277l0 0c0 -4.4908447 3.6405487 -8.131378 8.131393 -8.131378l225.02855 0c2.1565857 0 4.224823 0.85668945 5.749756 2.3816223c1.5249329 1.5249329 2.3816528 3.5932007 2.3816528 5.749756l0 32.524628c0 4.4908447 -3.640564 8.131378 -8.131409 8.131378l-225.02855 0l0 0c-4.4908447 0 -8.131393 -3.6405334 -8.131393 -8.131378z" fill-rule="evenodd"/><path stroke="#ffffff" stroke-width="1.0" stroke-linejoin="round" stroke-linecap="butt" d="m186.05905 424.5277l0 0c0 -4.4908447 3.6405487 -8.131378 8.131393 -8.131378l225.02855 0c2.1565857 0 4.224823 0.85668945 5.749756 2.3816223c1.5249329 1.5249329 2.3816528 3.5932007 2.3816528 5.749756l0 32.524628c0 4.4908447 -3.640564 8.131378 -8.131409 8.131378l-225.02855 0l0 0c-4.4908447 0 -8.131393 -3.6405334 -8.131393 -8.131378z" fill-rule="evenodd"/><path fill="#000000" d="m224.45277 447.17377q-0.953125 1.140625 -2.6875 1.765625q-1.734375 0.625 -3.84375 0.625q-2.21875 0 -3.890625 -0.96875q-1.671875 -0.96875 -2.578125 -2.796875q-0.90625 -1.84375 -0.921875 -4.328125l0 -1.171875q0 -2.546875 0.859375 -4.40625q0.859375 -1.875 2.484375 -2.859375q1.625 -1.0 3.796875 -1.0q3.03125 0 4.734375 1.453125q1.71875 1.4375 2.046875 4.203125l-3.421875 0q-0.234375 -1.46875 -1.046875 -2.140625q-0.796875 -0.6875 -2.203125 -0.6875q-1.796875 0 -2.734375 1.359375q-0.9375 1.34375 -0.953125 4.0l0 1.09375q0 2.6875 1.015625 4.0625q1.03125 1.359375 3.0 1.359375q1.984375 0 2.828125 -0.84375l0 -2.9375l-3.203125 0l0 -2.59375l6.71875 0l0 6.8125zm9.972656 2.15625q-0.234375 -0.453125 -0.34375 -1.140625q-1.234375 1.375 -3.203125 1.375q-1.859375 0 -3.09375 -1.078125q-1.21875 -1.078125 -1.21875 -2.71875q0 -2.015625 1.484375 -3.09375q1.5 -1.078125 4.328125 -1.09375l1.5625 0l0 -0.71875q0 -0.890625 -0.453125 -1.40625q-0.453125 -0.53125 -1.421875 -0.53125q-0.859375 0 -1.34375 0.40625q-0.484375 0.40625 -0.484375 1.125l-3.390625 0q0 -1.09375 0.671875 -2.03125q0.6875 -0.9375 1.921875 -1.46875q1.25 -0.546875 2.796875 -0.546875q2.34375 0 3.71875 1.1875q1.375 1.171875 1.375 3.3125l0 5.484375q0.015625 1.8125 0.515625 2.734375l0 0.203125l-3.421875 0zm-2.8125 -2.359375q0.75 0 1.375 -0.328125q0.640625 -0.34375 0.953125 -0.90625l0 -2.171875l-1.265625 0q-2.546875 0 -2.703125 1.75l-0.015625 0.203125q0 0.640625 0.4375 1.046875q0.453125 0.40625 1.21875 0.40625zm15.4453125 -7.140625q-0.6875 -0.09375 -1.21875 -0.09375q-1.921875 0 -2.515625 1.296875l0 8.296875l-3.390625 0l0 -12.6875l3.203125 0l0.09375 1.515625q1.015625 -1.75 2.828125 -1.75q0.5625 0 1.046875 0.15625l-0.046875 3.265625zm13.066391 3.28125q0 3.046875 -1.3125 4.75q-1.296875 1.703125 -3.6249847 1.703125q-2.0625 0 -3.296875 -1.578125l-0.15625 1.34375l-3.046875 0l0 -18.0l3.390625 0l0 6.453125q1.171875 -1.375 3.078125 -1.375q2.3281097 0 3.6406097 1.71875q1.328125 1.703125 1.328125 4.796875l0 0.1875zm-3.390625 -0.25q0 -1.921875 -0.609375 -2.796875q-0.60935974 -0.890625 -1.8124847 -0.890625q-1.625 0 -2.234375 1.3125l0 5.015625q0.625 1.328125 2.25 1.328125q1.640625 0 2.1562347 -1.609375q0.25 -0.78125 0.25 -2.359375zm12.824219 6.46875q-0.234375 -0.453125 -0.34375 -1.140625q-1.234375 1.375 -3.203125 1.375q-1.859375 0 -3.09375 -1.078125q-1.21875 -1.078125 -1.21875 -2.71875q0 -2.015625 1.484375 -3.09375q1.5 -1.078125 4.328125 -1.09375l1.5625 0l0 -0.71875q0 -0.890625 -0.453125 -1.40625q-0.453125 -0.53125 -1.421875 -0.53125q-0.859375 0 -1.34375 0.40625q-0.484375 0.40625 -0.484375 1.125l-3.390625 0q0 -1.09375 0.671875 -2.03125q0.6875 -0.9375 1.921875 -1.46875q1.25 -0.546875 2.796875 -0.546875q2.34375 0 3.71875 1.1875q1.375 1.171875 1.375 3.3125l0 5.484375q0.015625 1.8125 0.515625 2.734375l0 0.203125l-3.421875 0zm-2.8125 -2.359375q0.75 0 1.375 -0.328125q0.640625 -0.34375 0.953125 -0.90625l0 -2.171875l-1.265625 0q-2.546875 0 -2.703125 1.75l-0.015625 0.203125q0 0.640625 0.4375 1.046875q0.453125 0.40625 1.21875 0.40625zm7.8359375 -4.078125q0 -2.921875 1.390625 -4.703125q1.390625 -1.78125 3.734375 -1.78125q2.09375 0 3.25 1.4375l0.140625 -1.203125l3.078125 0l0 12.265625q0 1.671875 -0.765625 2.890625q-0.75 1.234375 -2.125 1.875q-1.375 0.65625 -3.203125 0.65625q-1.40625 0 -2.734375 -0.5625q-1.3125 -0.5625 -2.0 -1.4375l1.5 -2.0625q1.265625 1.421875 3.078125 1.421875q1.34375 0 2.09375 -0.71875q0.75 -0.71875 0.75 -2.046875l0 -0.6875q-1.171875 1.328125 -3.078125 1.328125q-2.28125 0 -3.703125 -1.78125q-1.40625 -1.796875 -1.40625 -4.75l0 -0.140625zm3.390625 0.25q0 1.71875 0.6875 2.703125q0.6875 0.96875 1.890625 0.96875q1.546875 0 2.21875 -1.15625l0 -5.328125q-0.671875 -1.15625 -2.1875 -1.15625q-1.21875 0 -1.921875 1.0q-0.6875 0.984375 -0.6875 2.96875zm16.636719 6.421875q-2.796875 0 -4.546875 -1.703125q-1.75 -1.71875 -1.75 -4.5625l0 -0.328125q0 -1.921875 0.734375 -3.421875q0.75 -1.5 2.09375 -2.3125q1.359375 -0.828125 3.09375 -0.828125q2.59375 0 4.09375 1.640625q1.5 1.640625 1.5 4.65625l0 1.390625l-8.078125 0q0.15625 1.234375 0.984375 1.984375q0.828125 0.75 2.09375 0.75q1.953125 0 3.0625 -1.421875l1.65625 1.875q-0.75 1.078125 -2.0625 1.6875q-1.296875 0.59375 -2.875 0.59375zm-0.390625 -10.40625q-1.0 0 -1.640625 0.6875q-0.625 0.671875 -0.796875 1.9375l4.71875 0l0 -0.265625q-0.03125 -1.125 -0.625 -1.734375q-0.578125 -0.625 -1.65625 -0.625zm27.121124 4.484375q-0.203125 2.75 -2.046875 4.34375q-1.828125 1.578125 -4.8281555 1.578125q-3.28125 0 -5.15625 -2.203125q-1.875 -2.21875 -1.875 -6.078125l0 -1.03125q0 -2.46875 0.859375 -4.34375q0.875 -1.875 2.484375 -2.875q1.609375 -1.0 3.734375 -1.0q2.9531555 0 4.7500305 1.578125q1.8125 1.578125 2.09375 4.4375l-3.515625 0q-0.125 -1.640625 -0.921875 -2.390625q-0.7812805 -0.75 -2.4062805 -0.75q-1.75 0 -2.625 1.265625q-0.875 1.265625 -0.890625 3.90625l0 1.296875q0 2.765625 0.828125 4.046875q0.84375 1.265625 2.640625 1.265625q1.640625 0 2.4375305 -0.734375q0.796875 -0.75 0.921875 -2.3125l3.515625 0zm1.5625 -0.765625q0 -1.890625 0.71875 -3.359375q0.734375 -1.484375 2.09375 -2.296875q1.359375 -0.8125 3.171875 -0.8125q2.5625 0 4.1875 1.578125q1.625 1.5625 1.8125 4.265625l0.015625 0.859375q0 2.921875 -1.625 4.6875q-1.625 1.765625 -4.375 1.765625q-2.734375 0 -4.375 -1.75q-1.625 -1.765625 -1.625 -4.796875l0 -0.140625zm3.375 0.234375q0 1.8125 0.671875 2.765625q0.6875 0.953125 1.953125 0.953125q1.234375 0 1.921875 -0.9375q0.703125 -0.953125 0.703125 -3.015625q0 -1.78125 -0.703125 -2.75q-0.6875 -0.96875 -1.9375 -0.96875q-1.25 0 -1.9375 0.96875q-0.671875 0.96875 -0.671875 2.984375zm14.2890625 6.21875l-3.390625 0l0 -18.0l3.390625 0l0 18.0zm6.3632812 0l-3.390625 0l0 -18.0l3.390625 0l0 18.0zm8.628906 0.234375q-2.796875 0 -4.546875 -1.703125q-1.75 -1.71875 -1.75 -4.5625l0 -0.328125q0 -1.921875 0.734375 -3.421875q0.75 -1.5 2.09375 -2.3125q1.359375 -0.828125 3.09375 -0.828125q2.59375 0 4.09375 1.640625q1.5 1.640625 1.5 4.65625l0 1.390625l-8.078125 0q0.15625 1.234375 0.984375 1.984375q0.828125 0.75 2.09375 0.75q1.953125 0 3.0625 -1.421875l1.65625 1.875q-0.75 1.078125 -2.0625 1.6875q-1.296875 0.59375 -2.875 0.59375zm-0.390625 -10.40625q-1.0 0 -1.640625 0.6875q-0.625 0.671875 -0.796875 1.9375l4.71875 0l0 -0.265625q-0.03125 -1.125 -0.625 -1.734375q-0.578125 -0.625 -1.65625 -0.625zm12.800781 7.671875q0.9375 0 1.515625 -0.515625q0.59375 -0.515625 0.609375 -1.375l3.1875 0q-0.015625 1.296875 -0.71875 2.375q-0.6875 1.0625 -1.890625 1.65625q-1.1875 0.59375 -2.640625 0.59375q-2.71875 0 -4.296875 -1.71875q-1.5625 -1.734375 -1.5625 -4.78125l0 -0.234375q0 -2.921875 1.546875 -4.671875q1.5625 -1.75 4.28125 -1.75q2.375 0 3.8125 1.359375q1.4375 1.359375 1.46875 3.609375l-3.1875 0q-0.015625 -0.984375 -0.609375 -1.59375q-0.578125 -0.625 -1.546875 -0.625q-1.171875 0 -1.78125 0.859375q-0.609375 0.859375 -0.609375 2.796875l0 0.34375q0 1.96875 0.59375 2.828125q0.609375 0.84375 1.828125 0.84375zm11.296875 -13.296875l0 3.109375l2.171875 0l0 2.484375l-2.171875 0l0 6.328125q0 0.703125 0.265625 1.015625q0.265625 0.296875 1.03125 0.296875q0.5625 0 1.0 -0.078125l0 2.5625q-1.0 0.3125 -2.046875 0.3125q-3.5625 0 -3.640625 -3.59375l0 -6.84375l-1.84375 0l0 -2.484375l1.84375 0l0 -3.109375l3.390625 0zm3.1796875 9.34375q0 -1.890625 0.71875 -3.359375q0.734375 -1.484375 2.09375 -2.296875q1.359375 -0.8125 3.171875 -0.8125q2.5625 0 4.1875 1.578125q1.625 1.5625 1.8125 4.265625l0.015625 0.859375q0 2.921875 -1.625 4.6875q-1.625 1.765625 -4.375 1.765625q-2.734375 0 -4.375 -1.75q-1.625 -1.765625 -1.625 -4.796875l0 -0.140625zm3.375 0.234375q0 1.8125 0.671875 2.765625q0.6875 0.953125 1.953125 0.953125q1.234375 0 1.921875 -0.9375q0.703125 -0.953125 0.703125 -3.015625q0 -1.78125 -0.703125 -2.75q-0.6875 -0.96875 -1.9375 -0.96875q-1.25 0 -1.9375 0.96875q-0.671875 0.96875 -0.671875 2.984375zm17.835938 -3.28125q-0.6875 -0.09375 -1.21875 -0.09375q-1.921875 0 -2.515625 1.296875l0 8.296875l-3.390625 0l0 -12.6875l3.203125 0l0.09375 1.515625q1.015625 -1.75 2.828125 -1.75q0.5625 0 1.046875 0.15625l-0.046875 3.265625z" fill-rule="nonzero"/><path fill="#ffffff" d="m532.6496 354.9739l0 0c0 -4.4908447 3.640564 -8.131378 8.131409 -8.131378l225.02856 0c2.1565552 0 4.2247925 0.85668945 5.749756 2.3816223c1.5249023 1.5249329 2.3815918 3.5931702 2.3815918 5.749756l0 32.524628c0 4.4908447 -3.640503 8.131378 -8.131348 8.131378l-225.02856 0l0 0c-4.4908447 0 -8.131409 -3.6405334 -8.131409 -8.131378z" fill-rule="evenodd"/><path stroke="#ffffff" stroke-width="1.0" stroke-linejoin="round" stroke-linecap="butt" d="m532.6496 354.9739l0 0c0 -4.4908447 3.640564 -8.131378 8.131409 -8.131378l225.02856 0c2.1565552 0 4.2247925 0.85668945 5.749756 2.3816223c1.5249023 1.5249329 2.3815918 3.5931702 2.3815918 5.749756l0 32.524628c0 4.4908447 -3.640503 8.131378 -8.131348 8.131378l-225.02856 0l0 0c-4.4908447 0 -8.131409 -3.6405334 -8.131409 -8.131378z" fill-rule="evenodd"/><path fill="#000000" d="m612.8324 365.55746l-5.234375 0l0 14.21875l-3.515625 0l0 -14.21875l-5.15625 0l0 -2.84375l13.90625 0l0 2.84375zm5.0820312 2.921875q1.34375 -1.625 3.390625 -1.625q4.125 0 4.171875 4.796875l0 8.125l-3.375 0l0 -8.03125q0 -1.09375 -0.46875 -1.609375q-0.46875 -0.515625 -1.5625 -0.515625q-1.484375 0 -2.15625 1.140625l0 9.015625l-3.390625 0l0 -18.0l3.390625 0l0 6.703125zm17.242188 1.796875q-0.6875 -0.09375 -1.21875 -0.09375q-1.921875 0 -2.515625 1.296875l0 8.296875l-3.390625 0l0 -12.6875l3.203125 0l0.09375 1.515625q1.015625 -1.75 2.828125 -1.75q0.5625 0 1.046875 0.15625l-0.046875 3.265625zm7.25 9.734375q-2.796875 0 -4.546875 -1.703125q-1.75 -1.71875 -1.75 -4.5625l0 -0.328125q0 -1.921875 0.734375 -3.421875q0.75 -1.5 2.09375 -2.3125q1.359375 -0.828125 3.09375 -0.828125q2.59375 0 4.09375 1.640625q1.5 1.640625 1.5 4.65625l0 1.390625l-8.078125 0q0.15625 1.234375 0.984375 1.984375q0.828125 0.75 2.09375 0.75q1.953125 0 3.0625 -1.421875l1.65625 1.875q-0.75 1.078125 -2.0625 1.6875q-1.296875 0.59375 -2.875 0.59375zm-0.390625 -10.40625q-1.0 0 -1.640625 0.6875q-0.625 0.671875 -0.796875 1.9375l4.71875 0l0 -0.265625q-0.03125 -1.125 -0.625 -1.734375q-0.578125 -0.625 -1.65625 -0.625zm14.878906 10.171875q-0.234375 -0.453125 -0.34375 -1.140625q-1.234375 1.375 -3.203125 1.375q-1.859375 0 -3.09375 -1.078125q-1.21875 -1.078125 -1.21875 -2.71875q0 -2.015625 1.484375 -3.09375q1.5 -1.078125 4.328125 -1.09375l1.5625 0l0 -0.71875q0 -0.890625 -0.453125 -1.40625q-0.453125 -0.53125 -1.421875 -0.53125q-0.859375 0 -1.34375 0.40625q-0.484375 0.40625 -0.484375 1.125l-3.390625 0q0 -1.09375 0.671875 -2.03125q0.6875 -0.9375 1.921875 -1.46875q1.25 -0.546875 2.796875 -0.546875q2.34375 0 3.71875 1.1875q1.375 1.171875 1.375 3.3125l0 5.484375q0.015625 1.8125 0.515625 2.734375l0 0.203125l-3.421875 0zm-2.8125 -2.359375q0.75 0 1.375 -0.328125q0.640625 -0.34375 0.953125 -0.90625l0 -2.171875l-1.265625 0q-2.546875 0 -2.703125 1.75l-0.015625 0.203125q0 0.640625 0.4375 1.046875q0.453125 0.40625 1.21875 0.40625zm7.8046875 -4.078125q0 -2.96875 1.328125 -4.71875q1.328125 -1.765625 3.640625 -1.765625q1.84375 0 3.046875 1.390625l0 -6.46875l3.40625 0l0 18.0l-3.0625 0l-0.15625 -1.34375q-1.265625 1.578125 -3.265625 1.578125q-2.234375 0 -3.59375 -1.765625q-1.34375 -1.765625 -1.34375 -4.90625zm3.375 0.25q0 1.78125 0.625 2.734375q0.625 0.9375 1.8125 0.9375q1.5625 0 2.203125 -1.3125l0 -5.015625q-0.625 -1.3125 -2.1875 -1.3125q-2.453125 0 -2.453125 3.96875zm14.2421875 6.1875l-3.390625 0l0 -12.6875l3.390625 0l0 12.6875zm-3.59375 -15.96875q0 -0.75 0.5 -1.234375q0.515625 -0.5 1.390625 -0.5q0.875 0 1.390625 0.5q0.515625 0.484375 0.515625 1.234375q0 0.78125 -0.53125 1.28125q-0.515625 0.484375 -1.375 0.484375q-0.84375 0 -1.375 -0.484375q-0.515625 -0.5 -0.515625 -1.28125zm9.503906 3.28125l0.109375 1.46875q1.359375 -1.703125 3.640625 -1.703125q2.015625 0 3.0 1.1875q0.984375 1.1875 1.0 3.546875l0 8.1875l-3.375 0l0 -8.109375q0 -1.078125 -0.46875 -1.5625q-0.46875 -0.484375 -1.5625 -0.484375q-1.4375 0 -2.140625 1.21875l0 8.9375l-3.390625 0l0 -12.6875l3.1875 0zm9.832031 6.25q0 -2.921875 1.390625 -4.703125q1.390625 -1.78125 3.734375 -1.78125q2.09375 0 3.25 1.4375l0.140625 -1.203125l3.078125 0l0 12.265625q0 1.671875 -0.765625 2.890625q-0.75 1.234375 -2.125 1.875q-1.375 0.65625 -3.203125 0.65625q-1.40625 0 -2.734375 -0.5625q-1.3125 -0.5625 -2.0 -1.4375l1.5 -2.0625q1.265625 1.421875 3.078125 1.421875q1.34375 0 2.09375 -0.71875q0.75 -0.71875 0.75 -2.046875l0 -0.6875q-1.171875 1.328125 -3.078125 1.328125q-2.28125 0 -3.703125 -1.78125q-1.40625 -1.796875 -1.40625 -4.75l0 -0.140625zm3.390625 0.25q0 1.71875 0.6875 2.703125q0.6875 0.96875 1.890625 0.96875q1.546875 0 2.21875 -1.15625l0 -5.328125q-0.671875 -1.15625 -2.1875 -1.15625q-1.21875 0 -1.921875 1.0q-0.6875 0.984375 -0.6875 2.96875z" fill-rule="nonzero"/><path fill="#ffffff" d="m532.6496 424.5277l0 0c0 -4.4908447 3.640564 -8.131378 8.131409 -8.131378l225.02856 0c2.1565552 0 4.2247925 0.85668945 5.749756 2.3816223c1.5249023 1.5249329 2.3815918 3.5932007 2.3815918 5.749756l0 32.524628c0 4.4908447 -3.640503 8.131378 -8.131348 8.131378l-225.02856 0l0 0c-4.4908447 0 -8.131409 -3.6405334 -8.131409 -8.131378z" fill-rule="evenodd"/><path stroke="#ffffff" stroke-width="1.0" stroke-linejoin="round" stroke-linecap="butt" d="m532.6496 424.5277l0 0c0 -4.4908447 3.640564 -8.131378 8.131409 -8.131378l225.02856 0c2.1565552 0 4.2247925 0.85668945 5.749756 2.3816223c1.5249023 1.5249329 2.3815918 3.5932007 2.3815918 5.749756l0 32.524628c0 4.4908447 -3.640503 8.131378 -8.131348 8.131378l-225.02856 0l0 0c-4.4908447 0 -8.131409 -3.6405334 -8.131409 -8.131378z" fill-rule="evenodd"/><path fill="#000000" d="m640.15076 449.5644q-2.796875 0 -4.546875 -1.703125q-1.75 -1.71875 -1.75 -4.5625l0 -0.328125q0 -1.921875 0.734375 -3.421875q0.75 -1.5 2.09375 -2.3125q1.359375 -0.828125 3.09375 -0.828125q2.59375 0 4.09375 1.640625q1.5 1.640625 1.5 4.65625l0 1.390625l-8.078125 0q0.15625 1.234375 0.984375 1.984375q0.828125 0.75 2.09375 0.75q1.953125 0 3.0625 -1.421875l1.65625 1.875q-0.75 1.078125 -2.0625 1.6875q-1.296875 0.59375 -2.875 0.59375zm-0.390625 -10.40625q-1.0 0 -1.640625 0.6875q-0.625 0.671875 -0.796875 1.9375l4.71875 0l0 -0.265625q-0.03125 -1.125 -0.625 -1.734375q-0.578125 -0.625 -1.65625 -0.625zm11.582031 -5.625l0 3.109375l2.171875 0l0 2.484375l-2.171875 0l0 6.328125q0 0.703125 0.265625 1.015625q0.265625 0.296875 1.03125 0.296875q0.5625 0 1.0 -0.078125l0 2.5625q-1.0 0.3125 -2.046875 0.3125q-3.5625 0 -3.640625 -3.59375l0 -6.84375l-1.84375 0l0 -2.484375l1.84375 0l0 -3.109375l3.390625 0zm9.328125 13.296875q0.9375 0 1.515625 -0.515625q0.59375 -0.515625 0.609375 -1.375l3.1875 0q-0.015625 1.296875 -0.71875 2.375q-0.6875 1.0625 -1.890625 1.65625q-1.1875 0.59375 -2.640625 0.59375q-2.71875 0 -4.296875 -1.71875q-1.5625 -1.734375 -1.5625 -4.78125l0 -0.234375q0 -2.921875 1.546875 -4.671875q1.5625 -1.75 4.28125 -1.75q2.375 0 3.8125 1.359375q1.4375 1.359375 1.46875 3.609375l-3.1875 0q-0.015625 -0.984375 -0.609375 -1.59375q-0.578125 -0.625 -1.546875 -0.625q-1.171875 0 -1.78125 0.859375q-0.609375 0.859375 -0.609375 2.796875l0 0.34375q0 1.96875 0.59375 2.828125q0.609375 0.84375 1.828125 0.84375zm7.421875 0.828125q0 -0.796875 0.53125 -1.296875q0.546875 -0.515625 1.375 -0.515625q0.828125 0 1.375 0.515625q0.546875 0.5 0.546875 1.296875q0 0.796875 -0.546875 1.296875q-0.53125 0.5 -1.375 0.5q-0.828125 0 -1.375 -0.5q-0.53125 -0.5 -0.53125 -1.296875z" fill-rule="nonzero"/></g></svg>